<svg xmlns="http://www.w3.org/2000/svg" xmlns:xlink="http://www.w3.org/1999/xlink" width="113" height="113" viewBox="0 0 113 113">
  <defs>
    <filter id="Path_982547" x="0" y="0" width="113" height="113" filterUnits="userSpaceOnUse">
      <feOffset dy="3" input="SourceAlpha"/>
      <feGaussianBlur stdDeviation="3" result="blur"/>
      <feFlood flood-opacity="0.161"/>
      <feComposite operator="in" in2="blur"/>
      <feComposite in="SourceGraphic"/>
    </filter>
  </defs>
  <g id="Group_1180074" data-name="Group 1180074" transform="translate(-174 -5698)">
    <g id="Group_1180073" data-name="Group 1180073">
      <g id="Group_1179932" data-name="Group 1179932" transform="translate(0 23)">
        <g id="Group_1173622" data-name="Group 1173622" transform="translate(-22 3581)">
          <g id="Group_1172087" data-name="Group 1172087" transform="translate(205 2100)">
            <g id="Group_1171485" data-name="Group 1171485">
              <g id="Group_1167519" data-name="Group 1167519" transform="translate(0)">
                <g id="Group_1166845" data-name="Group 1166845">
                  <g id="Group_1166720" data-name="Group 1166720">
                    <g id="Group_1164305" data-name="Group 1164305">
                      <g id="Group_1163948" data-name="Group 1163948">
                        <g id="Group_1158168" data-name="Group 1158168">
                          <g id="Group_1152576" data-name="Group 1152576">
                            <g id="Group_1148633" data-name="Group 1148633">
                              <g id="Group_1148525" data-name="Group 1148525">
                                <g transform="matrix(1, 0, 0, 1, -9, -6)" filter="url(#Path_982547)">
                                  <g id="Path_982547-2" data-name="Path 982547" transform="translate(9 6)" fill="#fdf6ea">
                                    <path d="M 47.5 93.5 C 41.28937149047852 93.5 35.26533508300781 92.28397369384766 29.59518623352051 89.88570404052734 C 24.11771965026855 87.56893157958984 19.19813346862793 84.25196075439453 14.97309303283691 80.02691650390625 C 10.74804019927979 75.80186462402344 7.431066513061523 70.88229370117188 5.114293098449707 65.40481567382812 C 2.716026782989502 59.73468017578125 1.5 53.71062850952148 1.5 47.5 C 1.5 41.28937149047852 2.716026782989502 35.26533508300781 5.114293098449707 29.59518623352051 C 7.431066513061523 24.11771965026855 10.74804019927979 19.19813346862793 14.97309303283691 14.97309303283691 C 19.19813346862793 10.74804019927979 24.11771965026855 7.431066513061523 29.59518623352051 5.114293098449707 C 35.26533508300781 2.716026782989502 41.28937149047852 1.5 47.5 1.5 C 53.71062850952148 1.5 59.73468017578125 2.716026782989502 65.40481567382812 5.114293098449707 C 70.88229370117188 7.431066513061523 75.80186462402344 10.74804019927979 80.02691650390625 14.97309303283691 C 84.25196075439453 19.19813346862793 87.56893157958984 24.11771965026855 89.88570404052734 29.59518623352051 C 92.28397369384766 35.26533508300781 93.5 41.28937149047852 93.5 47.5 C 93.5 53.71062850952148 92.28397369384766 59.73468017578125 89.88570404052734 65.40481567382812 C 87.56893157958984 70.88229370117188 84.25196075439453 75.80186462402344 80.02691650390625 80.02691650390625 C 75.80186462402344 84.25196075439453 70.88229370117188 87.56893157958984 65.40481567382812 89.88570404052734 C 59.73468017578125 92.28397369384766 53.71062850952148 93.5 47.5 93.5 Z" stroke="none"/>
                                    <path d="M 47.5 3 C 41.49121475219727 3 35.66376876831055 4.176155090332031 30.17950439453125 6.495796203613281 C 24.88084411621094 8.736953735351562 20.12152099609375 11.94598388671875 16.03375244140625 16.03375244140625 C 11.94598388671875 20.12152099609375 8.736953735351562 24.88084411621094 6.495796203613281 30.17950439453125 C 4.176155090332031 35.66376876831055 3 41.49121475219727 3 47.5 C 3 53.50878524780273 4.176155090332031 59.33623123168945 6.495796203613281 64.82049560546875 C 8.736953735351562 70.11915588378906 11.94598388671875 74.87847900390625 16.03375244140625 78.96624755859375 C 20.12152099609375 83.05401611328125 24.88084411621094 86.26304626464844 30.17950439453125 88.50419616699219 C 35.66376876831055 90.82384490966797 41.49121475219727 92 47.5 92 C 53.50878524780273 92 59.33623123168945 90.82384490966797 64.82049560546875 88.50419616699219 C 70.11915588378906 86.26304626464844 74.87847900390625 83.05401611328125 78.96624755859375 78.96624755859375 C 83.05401611328125 74.87847900390625 86.26304626464844 70.11915588378906 88.50419616699219 64.82049560546875 C 90.82384490966797 59.33623123168945 92 53.50878524780273 92 47.5 C 92 41.49121475219727 90.82384490966797 35.66376876831055 88.50419616699219 30.17950439453125 C 86.26304626464844 24.88084411621094 83.05401611328125 20.12152099609375 78.96624755859375 16.03375244140625 C 74.87847900390625 11.94598388671875 70.11915588378906 8.736953735351562 64.82049560546875 6.495796203613281 C 59.33623123168945 4.176155090332031 53.50878524780273 3 47.5 3 M 47.5 0 C 73.7335205078125 0 95 21.2664794921875 95 47.5 C 95 73.7335205078125 73.7335205078125 95 47.5 95 C 21.2664794921875 95 0 73.7335205078125 0 47.5 C 0 21.2664794921875 21.2664794921875 0 47.5 0 Z" stroke="none" fill="#edae3b"/>
                                  </g>
                                </g>
                              </g>
                            </g>
                          </g>
                        </g>
                      </g>
                    </g>
                  </g>
                </g>
              </g>
            </g>
          </g>
        </g>
        <g id="teamwork_12069149" transform="translate(192.5 5690.541)">
          <g id="Group_1179927" data-name="Group 1179927" transform="translate(7.502 7.459)">
            <path id="Path_1040713" data-name="Path 1040713" d="M358.421,425.134q-2.47.246-4.949.3a1.557,1.557,0,0,0-3.011,0,4.14,4.14,0,0,1-1,.017h-.023a.091.091,0,0,0-.006-.012c-5.236-.481-6.015-5.4,1.857-10.975a6.062,6.062,0,0,1,5.7,2.589,9.256,9.256,0,0,1,3.648,4.59A2.624,2.624,0,0,1,358.421,425.134Z" transform="translate(-304.015 -364.537)" fill="#55d47b"/>
            <path id="Path_1040714" data-name="Path 1040714" d="M335.441,414.439v.928l-1.1,1.776a9.479,9.479,0,0,0-3.648,4.721,2.7,2.7,0,0,0,2.224,3.589l.029.013c-1.373-.065-3.676-.294-3.952-.321a2.624,2.624,0,0,1-2.224-3.489,9.257,9.257,0,0,1,3.648-4.59A6.121,6.121,0,0,1,335.441,414.439Z" transform="translate(-287.496 -364.549)" fill="#00c140"/>
            <path id="Path_1040715" data-name="Path 1040715" d="M377.411,433.385l-.763,3.944c-.4,2.048,1.225,3.2,1.221,3.443q1.506.035,3.011,0c0-.238,1.621-1.374,1.2-3.567l-.763-3.944A2.054,2.054,0,0,0,377.411,433.385Z" transform="translate(-331.343 -379.871)" fill="#7a8fa5"/>
            <path id="Path_1040716" data-name="Path 1040716" d="M72.42,425.134q-2.47.246-4.949.3a1.557,1.557,0,0,0-3.011,0,4.141,4.141,0,0,1-1,.017h-.023a.091.091,0,0,0-.006-.012c-5.236-.481-6.015-5.4,1.857-10.975a6.062,6.062,0,0,1,5.7,2.589,9.256,9.256,0,0,1,3.648,4.59A2.624,2.624,0,0,1,72.42,425.134Z" transform="translate(-53.075 -364.537)" fill="#5ad6ff"/>
            <path id="Path_1040717" data-name="Path 1040717" d="M49.441,414.439v.928l-1.1,1.776a9.479,9.479,0,0,0-3.648,4.721,2.7,2.7,0,0,0,2.224,3.589l.029.013c-1.373-.065-3.676-.294-3.952-.321a2.624,2.624,0,0,1-2.224-3.489,9.257,9.257,0,0,1,3.648-4.59A6.121,6.121,0,0,1,49.441,414.439Z" transform="translate(-36.556 -364.549)" fill="#00b4fd"/>
            <path id="Path_1040718" data-name="Path 1040718" d="M90.752,433.385l-.762,3.944c-.4,2.048,1.225,3.2,1.221,3.443q1.506.035,3.011,0c0-.238,1.621-1.374,1.2-3.567l-.762-3.944A2.054,2.054,0,0,0,90.752,433.385Z" transform="translate(-79.825 -379.871)" fill="#7a8fa5"/>
            <path id="Path_1040719" data-name="Path 1040719" d="M336.79,55.254a.871.871,0,0,0,.56-.8v-.085a1.751,1.751,0,0,1,1.766-1.737H340.9a1.753,1.753,0,0,1,1.766,1.821.886.886,0,0,0,1.316.747,1.785,1.785,0,0,1,2.487.593l.893,1.522a1.724,1.724,0,0,1-.72,2.414.865.865,0,0,0,0,1.5,1.725,1.725,0,0,1,.72,2.414l-.893,1.522a1.784,1.784,0,0,1-2.487.593.885.885,0,0,0-1.316.747v.085a1.751,1.751,0,0,1-1.766,1.737h-1.786a1.751,1.751,0,0,1-1.766-1.737,1.315,1.315,0,0,0-.008-.2C331.932,64.561,331.505,57.418,336.79,55.254Z" transform="translate(-293.142 -47.097)" fill="#5b778f"/>
            <path id="Path_1040720" data-name="Path 1040720" d="M71.056,55.254a.865.865,0,0,1-.56-.8v-.085a1.751,1.751,0,0,0-1.766-1.737H66.944a1.753,1.753,0,0,0-1.766,1.821.886.886,0,0,1-1.316.747,1.785,1.785,0,0,0-2.487.593l-.893,1.522a1.724,1.724,0,0,0,.72,2.414.865.865,0,0,1,0,1.5,1.725,1.725,0,0,0-.72,2.414l.893,1.522a1.784,1.784,0,0,0,2.487.593.885.885,0,0,1,1.316.747v.085a1.751,1.751,0,0,0,1.766,1.737H68.73A1.751,1.751,0,0,0,70.5,66.59a1.32,1.32,0,0,1,.008-.2A6.352,6.352,0,0,0,71.056,55.254Z" transform="translate(-53.781 -47.097)" fill="#516980"/>
            <path id="Path_1040721" data-name="Path 1040721" d="M232.177,26.487l-.135-.076a1.577,1.577,0,0,1,0-2.728,3.144,3.144,0,0,0,1.314-4.4l-1.629-2.775a3.25,3.25,0,0,0-4.4-1.158l-.136.077a1.615,1.615,0,0,1-2.4-1.363v-.154a3.152,3.152,0,0,0-1.551-2.708c-6.494,0-10.6,6.615-6.99,12.314a4,4,0,1,1,0,3.068,10.394,10.394,0,0,0,6.99,12.314,3.157,3.157,0,0,0,1.551-2.708v-.154a1.616,1.616,0,0,1,2.4-1.363l.136.077a3.249,3.249,0,0,0,4.4-1.158l1.629-2.775A3.138,3.138,0,0,0,232.177,26.487Z" transform="translate(-189.482 -10.741)" fill="#7a8fa5"/>
            <path id="Path_1040722" data-name="Path 1040722" d="M160.209,35.614c-1.016.607-1.655.458-4.927.458a3.193,3.193,0,0,1-3.219-3.166v-.154a1.615,1.615,0,0,0-2.4-1.363l-.136.077a3.249,3.249,0,0,1-4.4-1.158L143.5,27.531a3.144,3.144,0,0,1,1.314-4.4,1.577,1.577,0,0,0,0-2.728l-.135-.076A3.138,3.138,0,0,1,143.5,16l1.629-2.775a3.25,3.25,0,0,1,4.4-1.158l.136.077a1.616,1.616,0,0,0,2.4-1.363v-.154a3.194,3.194,0,0,1,3.219-3.166h3.258a3.246,3.246,0,0,1,1.668.458,17.091,17.091,0,0,0-6.99,12.314,4.005,4.005,0,0,0,0,3.068A17.084,17.084,0,0,0,160.209,35.614Z" transform="translate(-126.449 -7.459)" fill="#5b778f"/>
            <path id="Path_1040723" data-name="Path 1040723" d="M218.268,72.9a6.932,6.932,0,0,0-9.216-4.77c-.878,2.153-3.761,4.487-3.71,6.836.044,2.052,2.909,4.114,3.709,6.078a6.925,6.925,0,0,0,9.217-8.143Zm-6.715,4.456a2.769,2.769,0,1,1,2.769-2.768A2.769,2.769,0,0,1,211.553,77.355Z" transform="translate(-181.091 -60.279)" fill="#edebfc"/>
            <path id="Path_1040724" data-name="Path 1040724" d="M203.961,84.4a6.925,6.925,0,0,1,0-12.913A17.171,17.171,0,0,0,203.961,84.4Z" transform="translate(-176.001 -63.64)" fill="#d9d9f9"/>
            <path id="Path_1040725" data-name="Path 1040725" d="M66.471,280.663a12.912,12.912,0,0,1-4.812,2.813c-12.268.114-16.285-16.066-5.124-21.5,3.853-.707,7.46.121,9.59,2.137C69.535,267.34,69.965,274.368,66.471,280.663Z" transform="translate(-44.778 -230.56)" fill="#db9e82"/>
            <path id="Path_1040726" data-name="Path 1040726" d="M24.4,285.257a12.934,12.934,0,0,1-16.82-13.552,18.254,18.254,0,0,1,11.7-7.946A12.933,12.933,0,0,0,24.4,285.257Z" transform="translate(-7.517 -232.34)" fill="#c8866a"/>
            <path id="Path_1040727" data-name="Path 1040727" d="M83.976,243.84c-.751,1.32-3.279,1.921-5.238.357a9.53,9.53,0,0,0-3.506.772,4.985,4.985,0,0,1-3.913,0,9.679,9.679,0,0,0-2.249-.656c-4.11-5.391,2.005-9.114,8.163-7.809a12.894,12.894,0,0,1,4.812,2.812C84.059,240.375,84.672,242.614,83.976,243.84Z" transform="translate(-60.35 -208.197)" fill="#7a8fa5"/>
            <path id="Path_1040728" data-name="Path 1040728" d="M24.84,233.891a12.957,12.957,0,0,0-8.163,7.809,9.45,9.45,0,0,0-8.657,3.249A12.934,12.934,0,0,1,24.84,233.891Z" transform="translate(-7.958 -205.583)" fill="#5b778f"/>
            <path id="Path_1040729" data-name="Path 1040729" d="M345.747,294.872c-11.067.857-16.1-13.476-6.918-19.718,5.114-1.576,12.1.375,16.1,6.588A12.928,12.928,0,0,1,345.747,294.872Z" transform="translate(-294.03 -241.882)" fill="#ffccbf"/>
            <path id="Path_1040730" data-name="Path 1040730" d="M330.1,298.6a12.914,12.914,0,0,1-12.487-2.887c-2.881-6.432-1.39-14.694,5.569-16.831A12.935,12.935,0,0,0,330.1,298.6Z" transform="translate(-278.381 -245.607)" fill="#ffbbae"/>
            <path id="Path_1040731" data-name="Path 1040731" d="M370.467,249.073a17.827,17.827,0,0,1-11.94-2.3,1.832,1.832,0,0,0-1.911-.006,16.989,16.989,0,0,1-3.736,1.694,5.345,5.345,0,0,1-.7-.211c-1.868-6.09,2.928-11.391,9.108-10.8A12.93,12.93,0,0,1,370.467,249.073Z" transform="translate(-309.567 -209.213)" fill="#db9e82"/>
            <path id="Path_1040732" data-name="Path 1040732" d="M336.311,233.872a12.935,12.935,0,0,0-9.108,10.8,5.827,5.827,0,0,1-3.378-7.913A12.921,12.921,0,0,1,336.311,233.872Z" transform="translate(-284.594 -205.639)" fill="#c8866a"/>
            <path id="Path_1040733" data-name="Path 1040733" d="M215.353,426.558q-2.469.246-4.949.3a1.557,1.557,0,0,0-3.011,0,11.424,11.424,0,0,1-2.2-.06c-4.77-1.158-3.988-8.159,5.276-10.753a6.6,6.6,0,0,1,3.462,2.431,9.256,9.256,0,0,1,3.648,4.59A2.624,2.624,0,0,1,215.353,426.558Z" transform="translate(-178.436 -365.961)" fill="#efedff"/>
            <path id="Path_1040734" data-name="Path 1040734" d="M194.345,414.561a6.717,6.717,0,0,0-3.5,2.506,9.491,9.491,0,0,0-3.649,4.722,2.705,2.705,0,0,0,1.872,3.526c-.778-.058-1.719-.141-2.746-.244a2.624,2.624,0,0,1-2.224-3.489,9.256,9.256,0,0,1,3.648-4.59A6.18,6.18,0,0,1,194.345,414.561Z" transform="translate(-162.315 -364.473)" fill="#d9d9f9"/>
            <path id="Path_1040735" data-name="Path 1040735" d="M234.082,433.385l-.762,3.944c-.4,2.048,1.225,3.2,1.221,3.443q1.506.035,3.011,0c0-.238,1.621-1.374,1.2-3.567l-.763-3.944A2.054,2.054,0,0,0,234.082,433.385Z" transform="translate(-205.585 -379.871)" fill="#5ad6ff"/>
            <path id="Path_1040736" data-name="Path 1040736" d="M187.71,277.05c-11.386-2.388-14.068-16.945-3.824-22.884,6.864-1.809,13.246,2.057,15.985,7.827A12.925,12.925,0,0,1,187.71,277.05Z" transform="translate(-156.667 -223.529)" fill="#ffded0"/>
            <path id="Path_1040737" data-name="Path 1040737" d="M164.074,280.264a12.926,12.926,0,0,1-13.324-15.057,15.073,15.073,0,0,1,9.5-7.827C154.011,264.376,155.986,276.286,164.074,280.264Z" transform="translate(-133.031 -226.742)" fill="#ffccbf"/>
            <path id="Path_1040738" data-name="Path 1040738" d="M221.943,244.21a10.49,10.49,0,0,1-5.337-3.125.607.607,0,0,0-1.033.273c-.629,2.395-3.444,1.977-4.941.194a.614.614,0,0,0-.961.016c-1.678,2.237-4.619,1.336-6.354-.832-2.312-3.9,1.881-6.952,6.466-7.287A12.924,12.924,0,0,1,221.943,244.21Z" transform="translate(-178.738 -205.746)" fill="#f8ea69"/>
            <path id="Path_1040739" data-name="Path 1040739" d="M165.385,233.356a13.429,13.429,0,0,0-6.466,7.287c-.038-.048-.076-.1-.113-.145a.616.616,0,0,0-.972-.013,10.489,10.489,0,0,1-5.774,3.632A12.922,12.922,0,0,1,165.385,233.356Z" transform="translate(-134.341 -205.652)" fill="#ffcf6b"/>
          </g>
          <g id="Group_1179931" data-name="Group 1179931" transform="translate(7.5 7.467)">
            <g id="Group_1179930" data-name="Group 1179930" transform="translate(0)">
              <path id="Path_1040740" data-name="Path 1040740" d="M153.992,435.945a9.258,9.258,0,0,1,3.648,4.59,2.636,2.636,0,0,1,.09.3" transform="translate(-136.034 -383.426)" fill="none" stroke="#000" stroke-linecap="round" stroke-linejoin="round" stroke-miterlimit="10" stroke-width="1.5"/>
              <path id="Path_1040741" data-name="Path 1040741" d="M58.493,442a2.644,2.644,0,0,1-2.314,2.029,64.941,64.941,0,0,1-12.909,0,2.623,2.623,0,0,1-2.224-3.488,9.259,9.259,0,0,1,3.648-4.59" transform="translate(-36.796 -383.427)" fill="none" stroke="#000" stroke-linecap="round" stroke-linejoin="round" stroke-miterlimit="10" stroke-width="1.5"/>
              <path id="Path_1040742" data-name="Path 1040742" d="M125.238,450.533a4,4,0,0,0,1.2-3.539l-.763-3.944" transform="translate(-110.805 -389.66)" fill="none" stroke="#000" stroke-linecap="round" stroke-linejoin="round" stroke-miterlimit="10" stroke-width="1.5"/>
              <path id="Path_1040743" data-name="Path 1040743" d="M91.2,443.049l-.763,3.944a3.544,3.544,0,0,0,.641,2.819l.557.721" transform="translate(-80.212 -389.659)" fill="none" stroke="#000" stroke-linecap="round" stroke-linejoin="round" stroke-miterlimit="10" stroke-width="1.5"/>
              <path id="Path_1040744" data-name="Path 1040744" d="M7.8,249.1A12.924,12.924,0,0,1,29.2,236.836" transform="translate(-7.5 -205.716)" fill="none" stroke="#000" stroke-linecap="round" stroke-linejoin="round" stroke-miterlimit="10" stroke-width="1.5"/>
              <path id="Path_1040745" data-name="Path 1040745" d="M41.612,394.555a12.928,12.928,0,0,1-19.962-3.031" transform="translate(-19.915 -344.451)" fill="none" stroke="#000" stroke-linecap="round" stroke-linejoin="round" stroke-miterlimit="10" stroke-width="1.5"/>
              <path id="Path_1040746" data-name="Path 1040746" d="M26.358,301.174a9.532,9.532,0,0,0-3.506.773,4.986,4.986,0,0,1-3.912,0,9.416,9.416,0,0,0-4.5-.742,9.774,9.774,0,0,0-6.4,3.334" transform="translate(-7.968 -265.174)" fill="none" stroke="#000" stroke-linecap="round" stroke-linejoin="round" stroke-miterlimit="10" stroke-width="1.5"/>
              <path id="Path_1040747" data-name="Path 1040747" d="M341.347,435.945a9.258,9.258,0,0,1,3.648,4.59,2.623,2.623,0,0,1-2.224,3.488,64.941,64.941,0,0,1-12.909,0,2.644,2.644,0,0,1-2.314-2.029" transform="translate(-288.314 -383.426)" fill="none" stroke="#000" stroke-linecap="round" stroke-linejoin="round" stroke-miterlimit="10" stroke-width="1.5"/>
              <path id="Path_1040748" data-name="Path 1040748" d="M327.548,440.84a9.119,9.119,0,0,1,3.739-4.894" transform="translate(-288.314 -383.427)" fill="none" stroke="#000" stroke-linecap="round" stroke-linejoin="round" stroke-miterlimit="10" stroke-width="1.5"/>
              <path id="Path_1040749" data-name="Path 1040749" d="M411.356,450.533a4,4,0,0,0,1.2-3.539l-.763-3.944" transform="translate(-361.849 -389.66)" fill="none" stroke="#000" stroke-linecap="round" stroke-linejoin="round" stroke-miterlimit="10" stroke-width="1.5"/>
              <path id="Path_1040750" data-name="Path 1040750" d="M377.263,443.049l-.763,3.944a4,4,0,0,0,1.2,3.539" transform="translate(-331.201 -389.659)" fill="none" stroke="#000" stroke-linecap="round" stroke-linejoin="round" stroke-miterlimit="10" stroke-width="1.5"/>
              <path id="Path_1040751" data-name="Path 1040751" d="M327.548,255.82a12.922,12.922,0,1,0,0-18.984" transform="translate(-288.314 -205.716)" fill="none" stroke="#000" stroke-linecap="round" stroke-linejoin="round" stroke-miterlimit="10" stroke-width="1.5"/>
              <path id="Path_1040752" data-name="Path 1040752" d="M378.433,314.241a17.828,17.828,0,0,1-11.939-2.3,1.833,1.833,0,0,0-1.911-.007,16.942,16.942,0,0,1-3.736,1.695" transform="translate(-317.53 -274.381)" fill="none" stroke="#000" stroke-linecap="round" stroke-linejoin="round" stroke-miterlimit="10" stroke-width="1.5"/>
              <path id="Path_1040753" data-name="Path 1040753" d="M197.812,435.945a9.259,9.259,0,0,1,3.648,4.59,2.623,2.623,0,0,1-2.224,3.488,64.942,64.942,0,0,1-12.909,0,2.623,2.623,0,0,1-2.224-3.488,9.259,9.259,0,0,1,3.648-4.59" transform="translate(-162.317 -383.426)" fill="none" stroke="#000" stroke-linecap="round" stroke-linejoin="round" stroke-miterlimit="10" stroke-width="1.5"/>
              <path id="Path_1040754" data-name="Path 1040754" d="M268.3,450.533a4,4,0,0,0,1.2-3.539l-.763-3.944" transform="translate(-236.327 -389.66)" fill="none" stroke="#000" stroke-linecap="round" stroke-linejoin="round" stroke-miterlimit="10" stroke-width="1.5"/>
              <path id="Path_1040755" data-name="Path 1040755" d="M234.2,443.049l-.763,3.944a4,4,0,0,0,1.2,3.539" transform="translate(-205.679 -389.659)" fill="none" stroke="#000" stroke-linecap="round" stroke-linejoin="round" stroke-miterlimit="10" stroke-width="1.5"/>
              <circle id="Ellipse_12184" data-name="Ellipse 12184" cx="12.922" cy="12.922" r="12.922" transform="translate(17.543 27.69)" fill="none" stroke="#000" stroke-linecap="round" stroke-linejoin="round" stroke-miterlimit="10" stroke-width="1.5"/>
              <path id="Path_1040756" data-name="Path 1040756" d="M177.544,293.643a10.5,10.5,0,0,1-5.339-3.124.607.607,0,0,0-1.034.273,2.243,2.243,0,0,1-.833,1.308c-.995.693-2.85.384-4.107-1.114a.615.615,0,0,0-.962.015,3.207,3.207,0,0,1-1.392,1.1c-1.538.6-3.638-.175-5.074-2.074a.615.615,0,0,0-.972-.014,10.493,10.493,0,0,1-5.776,3.632" transform="translate(-134.335 -255.179)" fill="none" stroke="#000" stroke-linecap="round" stroke-linejoin="round" stroke-miterlimit="10" stroke-width="1.5"/>
              <g id="Group_1179929" data-name="Group 1179929" transform="translate(22.81 41.535)">
                <line id="Line_1223" data-name="Line 1223" y2="1.471" fill="none" stroke="#000" stroke-linecap="round" stroke-linejoin="round" stroke-miterlimit="10" stroke-width="1.5"/>
                <line id="Line_1224" data-name="Line 1224" y2="1.471" transform="translate(15.311)" fill="none" stroke="#000" stroke-linecap="round" stroke-linejoin="round" stroke-miterlimit="10" stroke-width="1.5"/>
                <g id="Group_1179928" data-name="Group 1179928" transform="translate(4.133 2.348)">
                  <path id="Path_1040757" data-name="Path 1040757" d="M234.377,365.5a1.772,1.772,0,0,1-3.544,0,1.772,1.772,0,0,1-3.544,0" transform="translate(-227.288 -365.502)" fill="none" stroke="#000" stroke-linecap="round" stroke-linejoin="round" stroke-miterlimit="10" stroke-width="1.5"/>
                </g>
              </g>
              <path id="Path_1040758" data-name="Path 1040758" d="M160.266,35.651a3.153,3.153,0,0,0,1.5-2.681v-.154a1.615,1.615,0,0,1,2.4-1.363l.136.077a3.249,3.249,0,0,0,4.4-1.159l1.629-2.775a3.139,3.139,0,0,0-1.179-4.326l-.135-.076a1.577,1.577,0,0,1,0-2.727,3.145,3.145,0,0,0,1.313-4.4l-1.629-2.775a3.25,3.25,0,0,0-4.4-1.159l-.136.077a1.615,1.615,0,0,1-2.4-1.363v-.154a3.194,3.194,0,0,0-3.22-3.167h-3.258a3.194,3.194,0,0,0-3.22,3.167,1.616,1.616,0,0,1-2.4,1.517,3.256,3.256,0,0,0-4.534,1.082l-1.629,2.775a3.138,3.138,0,0,0,1.179,4.326l.135.076a1.577,1.577,0,0,1,0,2.727,3.145,3.145,0,0,0-1.313,4.4l1.629,2.775a3.25,3.25,0,0,0,4.4,1.159l.136-.077a1.615,1.615,0,0,1,2.4,1.363v.154a3.153,3.153,0,0,0,1.5,2.681" transform="translate(-126.457 -7.524)" fill="none" stroke="#000" stroke-linecap="round" stroke-linejoin="round" stroke-miterlimit="10" stroke-width="1.5"/>
              <path id="Path_1040759" data-name="Path 1040759" d="M363.586,55.318a.865.865,0,0,0,.56-.8v-.085a1.751,1.751,0,0,1,1.766-1.737H367.7a1.751,1.751,0,0,1,1.766,1.737.886.886,0,0,0,1.316.832,1.785,1.785,0,0,1,2.487.593l.893,1.522a1.721,1.721,0,0,1-.646,2.372.866.866,0,0,0-.074,1.537,1.725,1.725,0,0,1,.72,2.414l-.893,1.522a1.782,1.782,0,0,1-2.412.636l-.075-.042a.885.885,0,0,0-1.316.747v.085A1.751,1.751,0,0,1,367.7,68.39h-1.786a1.751,1.751,0,0,1-1.766-1.737v-.085a.844.844,0,0,0-.008-.116" transform="translate(-319.935 -47.161)" fill="none" stroke="#000" stroke-linecap="round" stroke-linejoin="round" stroke-miterlimit="10" stroke-width="1.5"/>
              <path id="Path_1040760" data-name="Path 1040760" d="M71.065,55.318a.865.865,0,0,1-.56-.8v-.085A1.751,1.751,0,0,0,68.739,52.7H66.953a1.751,1.751,0,0,0-1.766,1.737.886.886,0,0,1-1.316.832,1.785,1.785,0,0,0-2.487.593l-.893,1.522a1.721,1.721,0,0,0,.646,2.372.866.866,0,0,1,.074,1.537,1.725,1.725,0,0,0-.72,2.414l.893,1.522a1.782,1.782,0,0,0,2.412.636l.075-.042a.885.885,0,0,1,1.316.747v.085a1.751,1.751,0,0,0,1.766,1.737h1.786a1.751,1.751,0,0,0,1.766-1.737,1.317,1.317,0,0,1,.008-.2" transform="translate(-53.787 -47.161)" fill="none" stroke="#000" stroke-linecap="round" stroke-linejoin="round" stroke-miterlimit="10" stroke-width="1.5"/>
              <path id="Path_1040761" data-name="Path 1040761" d="M213.378,75.143a6.92,6.92,0,1,1-.783-3.692" transform="translate(-176.005 -60.375)" fill="none" stroke="#000" stroke-linecap="round" stroke-linejoin="round" stroke-miterlimit="10" stroke-width="1.5"/>
              <circle id="Ellipse_12185" data-name="Ellipse 12185" cx="2.769" cy="2.769" r="2.769" transform="translate(27.696 11.538)" fill="none" stroke="#000" stroke-linecap="round" stroke-linejoin="round" stroke-miterlimit="10" stroke-width="1.5"/>
            </g>
          </g>
        </g>
      </g>
    </g>
  </g>
</svg>
