<svg xmlns="http://www.w3.org/2000/svg" xmlns:xlink="http://www.w3.org/1999/xlink" width="113" height="113" viewBox="0 0 113 113">
  <defs>
    <filter id="Path_982547" x="0" y="0" width="113" height="113" filterUnits="userSpaceOnUse">
      <feOffset dy="3" input="SourceAlpha"/>
      <feGaussianBlur stdDeviation="3" result="blur"/>
      <feFlood flood-opacity="0.161"/>
      <feComposite operator="in" in2="blur"/>
      <feComposite in="SourceGraphic"/>
    </filter>
  </defs>
  <g id="Group_1180066" data-name="Group 1180066" transform="translate(-891 -4670)">
    <g id="Group_1179925" data-name="Group 1179925" transform="translate(0 23)">
      <g id="Group_1172829" data-name="Group 1172829" transform="translate(-10.5 3400.564)">
        <g id="Group_1172153" data-name="Group 1172153" transform="translate(0 -51.709)">
          <g id="Group_1171048" data-name="Group 1171048" transform="translate(910.5 1304.145)">
            <g id="Group_1148525" data-name="Group 1148525" transform="translate(0)">
              <g transform="matrix(1, 0, 0, 1, -9, -6)" filter="url(#Path_982547)">
                <g id="Path_982547-2" data-name="Path 982547" transform="translate(9 6)" fill="#f2f7f5">
                  <path d="M 47.5 93.5 C 41.28937149047852 93.5 35.26533508300781 92.28397369384766 29.59518623352051 89.88570404052734 C 24.11771965026855 87.56893157958984 19.19813346862793 84.25196075439453 14.97309303283691 80.02691650390625 C 10.74804019927979 75.80186462402344 7.431066513061523 70.88229370117188 5.114293098449707 65.40481567382812 C 2.716026782989502 59.73468017578125 1.5 53.71062850952148 1.5 47.5 C 1.5 41.28937149047852 2.716026782989502 35.26533508300781 5.114293098449707 29.59518623352051 C 7.431066513061523 24.11771965026855 10.74804019927979 19.19813346862793 14.97309303283691 14.97309303283691 C 19.19813346862793 10.74804019927979 24.11771965026855 7.431066513061523 29.59518623352051 5.114293098449707 C 35.26533508300781 2.716026782989502 41.28937149047852 1.5 47.5 1.5 C 53.71062850952148 1.5 59.73468017578125 2.716026782989502 65.40481567382812 5.114293098449707 C 70.88229370117188 7.431066513061523 75.80186462402344 10.74804019927979 80.02691650390625 14.97309303283691 C 84.25196075439453 19.19813346862793 87.56893157958984 24.11771965026855 89.88570404052734 29.59518623352051 C 92.28397369384766 35.26533508300781 93.5 41.28937149047852 93.5 47.5 C 93.5 53.71062850952148 92.28397369384766 59.73468017578125 89.88570404052734 65.40481567382812 C 87.56893157958984 70.88229370117188 84.25196075439453 75.80186462402344 80.02691650390625 80.02691650390625 C 75.80186462402344 84.25196075439453 70.88229370117188 87.56893157958984 65.40481567382812 89.88570404052734 C 59.73468017578125 92.28397369384766 53.71062850952148 93.5 47.5 93.5 Z" stroke="none"/>
                  <path d="M 47.5 3 C 41.49121475219727 3 35.66376876831055 4.176155090332031 30.17950439453125 6.495796203613281 C 24.88084411621094 8.736953735351562 20.12152099609375 11.94598388671875 16.03375244140625 16.03375244140625 C 11.94598388671875 20.12152099609375 8.736953735351562 24.88084411621094 6.495796203613281 30.17950439453125 C 4.176155090332031 35.66376876831055 3 41.49121475219727 3 47.5 C 3 53.50878524780273 4.176155090332031 59.33623123168945 6.495796203613281 64.82049560546875 C 8.736953735351562 70.11915588378906 11.94598388671875 74.87847900390625 16.03375244140625 78.96624755859375 C 20.12152099609375 83.05401611328125 24.88084411621094 86.26304626464844 30.17950439453125 88.50419616699219 C 35.66376876831055 90.82384490966797 41.49121475219727 92 47.5 92 C 53.50878524780273 92 59.33623123168945 90.82384490966797 64.82049560546875 88.50419616699219 C 70.11915588378906 86.26304626464844 74.87847900390625 83.05401611328125 78.96624755859375 78.96624755859375 C 83.05401611328125 74.87847900390625 86.26304626464844 70.11915588378906 88.50419616699219 64.82049560546875 C 90.82384490966797 59.33623123168945 92 53.50878524780273 92 47.5 C 92 41.49121475219727 90.82384490966797 35.66376876831055 88.50419616699219 30.17950439453125 C 86.26304626464844 24.88084411621094 83.05401611328125 20.12152099609375 78.96624755859375 16.03375244140625 C 74.87847900390625 11.94598388671875 70.11915588378906 8.736953735351562 64.82049560546875 6.495796203613281 C 59.33623123168945 4.176155090332031 53.50878524780273 3 47.5 3 M 47.5 0 C 73.7335205078125 0 95 21.2664794921875 95 47.5 C 95 73.7335205078125 73.7335205078125 95 47.5 95 C 21.2664794921875 95 0 73.7335205078125 0 47.5 C 0 21.2664794921875 21.2664794921875 0 47.5 0 Z" stroke="none" fill="#4a665c"/>
                </g>
              </g>
            </g>
          </g>
        </g>
      </g>
      <g id="africa_3498304" transform="translate(915.793 4663)">
        <g id="Filled_20_" transform="translate(1.125 0.92)">
          <path id="Path_1040693" data-name="Path 1040693" d="M62.164,160.574C77.476,140.862,63.611,111.5,38.123,111.5c-25.469,0-39.369,29.342-24.041,49.074Z" transform="translate(-7.689 -98.741)" fill="#b6e6fa"/>
          <path id="Path_1040694" data-name="Path 1040694" d="M39.807,481.5a30.5,30.5,0,0,0,2.452,3.681H90.341a30.5,30.5,0,0,0,2.452-3.681Z" transform="translate(-35.867 -423.347)" fill="#8ad8f6"/>
          <path id="Path_1040695" data-name="Path 1040695" d="M115.313,212.146l-1.963-5.889,1.227-3.19L112,198.282l.368-3.19L109.3,193.62l-5.275.981-3.067-1.718-2.208-4.417.368-4.907,3.435-4.907.245-2.576,5.766-2.576h5.03v2.7l4.049,1.718,1.35-1.963,7.238,1.718,5.275,10.919h2.822l-1.84,6.38-4.785,5.153.736,5.644-2.944,1.595.368,2.454-2.086,1.472-.214,2.086-2.485.613h-3.435Z" transform="translate(-87.579 -153.134)" fill="#a0804c"/>
          <path id="Path_1040696" data-name="Path 1040696" d="M232.331,404.633l-6.457,3.5.414,2.762-1.6,1.129-.109,1.06h-1.257l-5.468-4.317-.1.269,1.963,5.889,2.331,1.84h3.435l2.485-.613.214-2.086,2.086-1.472-.368-2.454,2.944-1.595Z" transform="translate(-191.98 -355.911)" fill="#876c3e"/>
          <path id="Path_1040697" data-name="Path 1040697" d="M371.677,436.107l1.595-6.625L370.2,428.5l-2.454,3.19.245,3.558Z" transform="translate(-323.577 -376.85)" fill="#a0804c"/>
          <path id="Path_1040698" data-name="Path 1040698" d="M159.243,40.08,149.7,30.539C141.275,22.107,147.186,7.5,159.243,7.5s17.965,14.611,9.543,23.039Z" transform="translate(-128.809 -7.5)" fill="#f88fa4"/>
          <path id="Path_1040699" data-name="Path 1040699" d="M168.788,105.687l-9.543,9.541-9.543-9.541a13.442,13.442,0,0,1-3.75-7.216,13.486,13.486,0,0,0,3.75,11.878l9.543,9.541,9.543-9.541a13.486,13.486,0,0,0,3.75-11.878A13.442,13.442,0,0,1,168.788,105.687Z" transform="translate(-128.812 -87.31)" fill="#f05475"/>
          <circle id="Ellipse_12183" data-name="Ellipse 12183" cx="7.361" cy="7.361" r="7.361" transform="translate(23.072 6.134)" fill="#fff"/>
        </g>
        <g id="Group_1179924" data-name="Group 1179924" transform="translate(9.72 29.935)">
          <path id="Path_1040700" data-name="Path 1040700" d="M416.751,244h1.84v1.84h-1.84Z" transform="translate(-375.161 -244)" fill="#fff"/>
          <path id="Path_1040701" data-name="Path 1040701" d="M77.751,456h1.84v1.84h-1.84Z" transform="translate(-77.751 -429.991)" fill="#fff"/>
          <path id="Path_1040702" data-name="Path 1040702" d="M218.251,276.5h1.84v1.577h-1.84Z" transform="translate(-201.014 -272.513)" fill="#fff"/>
          <path id="Path_1040703" data-name="Path 1040703" d="M278.251,276.5h1.84v1.577h-1.84Z" transform="translate(-253.653 -272.513)" fill="#fff"/>
        </g>
        <g id="Outline_20_" transform="translate(0.207)">
          <path id="Path_1040704" data-name="Path 1040704" d="M360.074,423.73l.316,4.584,5.232,1.221,2.009-8.345-4.5-1.439Zm5.368-1.308-1.181,4.905-2.129-.5-.175-2.532,1.847-2.4Z" transform="translate(-315.924 -368.254)"/>
          <path id="Path_1040705" data-name="Path 1040705" d="M196.532,66.562a8.281,8.281,0,1,0-8.281-8.281A8.291,8.291,0,0,0,196.532,66.562Zm0-14.722a6.441,6.441,0,1,1-6.441,6.441A6.448,6.448,0,0,1,196.532,51.84Z" transform="translate(-165.181 -43.866)"/>
          <path id="Path_1040706" data-name="Path 1040706" d="M152.663,34.8l10.194-10.192c9-9,2.69-24.609-10.194-24.609S133.47,15.6,142.469,24.609Zm0-32.961c11.234,0,16.743,13.611,8.893,21.468L152.663,32.2l-8.892-8.89c-7.848-7.854-2.347-21.468,8.892-21.468Z" transform="translate(-121.312)"/>
          <path id="Path_1040707" data-name="Path 1040707" d="M386.668,144.466l-1,1.548a29.534,29.534,0,0,1,9.958,10.664h-2.464v1.84h3.388q.416.906.771,1.84h-2.441v1.84h3.07a29.5,29.5,0,0,1-4.454,26.138l1.481,1.092A31.346,31.346,0,0,0,386.668,144.466Z" transform="translate(-338.382 -126.742)"/>
          <path id="Path_1040708" data-name="Path 1040708" d="M15.619,146.015l-1-1.548A31.347,31.347,0,0,0,6.31,189.429l1.481-1.092a29.675,29.675,0,0,1-2.386-3.809H7.88v-1.84H4.519q-.4-.908-.734-1.84H6.162v-1.84H3.19A29.5,29.5,0,0,1,15.619,146.015Z" transform="translate(-0.207 -126.743)"/>
          <path id="Path_1040709" data-name="Path 1040709" d="M121.976,218.232l4.64-5,2.24-7.765h-3.468l-3.5-7.242-1.657.8,4,8.282h2.176l-1.441,4.994-4.93,5.309.71,5.445-2.956,1.6.38,2.531-1.964,1.386-.191,1.858-1.748.431h-3l-1.864-1.472-1.772-5.315,1.26-3.276-2.64-4.9.41-3.554-3.929-1.886-5.244.976-2.53-1.417-1.968-3.936.33-4.4,3.429-4.9.268-2.818-1.832-.174-.222,2.335-3.441,4.916-.406,5.413,2.448,4.9,3.6,2.019,5.307-.987,2.205,1.058-.326,2.826,2.513,4.667-1.194,3.1,2.154,6.463,2.8,2.209h3.866l3.223-.8.237-2.314,2.207-1.558-.356-2.377,2.933-1.589Z" transform="translate(-79.965 -170.014)"/>
          <path id="Path_1040710" data-name="Path 1040710" d="M263.251,109h1.84v1.84h-1.84Z" transform="translate(-230.979 -95.627)"/>
          <path id="Path_1040711" data-name="Path 1040711" d="M233.251,109h1.84v1.84h-1.84Z" transform="translate(-204.66 -95.627)"/>
          <path id="Path_1040712" data-name="Path 1040712" d="M248.251,300h1.84v1.84h-1.84Z" transform="translate(-217.82 -263.195)"/>
        </g>
      </g>
    </g>
  </g>
</svg>
