<svg xmlns="http://www.w3.org/2000/svg" xmlns:xlink="http://www.w3.org/1999/xlink" width="113" height="113" viewBox="0 0 113 113">
  <defs>
    <filter id="Path_982547" x="0" y="0" width="113" height="113" filterUnits="userSpaceOnUse">
      <feOffset dy="3" input="SourceAlpha"/>
      <feGaussianBlur stdDeviation="3" result="blur"/>
      <feFlood flood-opacity="0.161"/>
      <feComposite operator="in" in2="blur"/>
      <feComposite in="SourceGraphic"/>
    </filter>
  </defs>
  <g id="Group_1180094" data-name="Group 1180094" transform="translate(-192.497 -7586.939)">
    <g id="Group_1172087" data-name="Group 1172087" transform="translate(201.497 7592.939)">
      <g id="Group_1171485" data-name="Group 1171485">
        <g id="Group_1167519" data-name="Group 1167519" transform="translate(0)">
          <g id="Group_1166845" data-name="Group 1166845">
            <g id="Group_1166720" data-name="Group 1166720">
              <g id="Group_1164305" data-name="Group 1164305">
                <g id="Group_1163948" data-name="Group 1163948">
                  <g id="Group_1158168" data-name="Group 1158168">
                    <g id="Group_1152576" data-name="Group 1152576">
                      <g id="Group_1148633" data-name="Group 1148633">
                        <g id="Group_1148525" data-name="Group 1148525">
                          <g transform="matrix(1, 0, 0, 1, -9, -6)" filter="url(#Path_982547)">
                            <g id="Path_982547-2" data-name="Path 982547" transform="translate(9 6)" fill="#f1f0f2">
                              <path d="M 47.5 93.5 C 41.28937149047852 93.5 35.26533508300781 92.28397369384766 29.59518623352051 89.88570404052734 C 24.11771965026855 87.56893157958984 19.19813346862793 84.25196075439453 14.97309303283691 80.02691650390625 C 10.74804019927979 75.80186462402344 7.431066513061523 70.88229370117188 5.114293098449707 65.40481567382812 C 2.716026782989502 59.73468017578125 1.5 53.71062850952148 1.5 47.5 C 1.5 41.28937149047852 2.716026782989502 35.26533508300781 5.114293098449707 29.59518623352051 C 7.431066513061523 24.11771965026855 10.74804019927979 19.19813346862793 14.97309303283691 14.97309303283691 C 19.19813346862793 10.74804019927979 24.11771965026855 7.431066513061523 29.59518623352051 5.114293098449707 C 35.26533508300781 2.716026782989502 41.28937149047852 1.5 47.5 1.5 C 53.71062850952148 1.5 59.73468017578125 2.716026782989502 65.40481567382812 5.114293098449707 C 70.88229370117188 7.431066513061523 75.80186462402344 10.74804019927979 80.02691650390625 14.97309303283691 C 84.25196075439453 19.19813346862793 87.56893157958984 24.11771965026855 89.88570404052734 29.59518623352051 C 92.28397369384766 35.26533508300781 93.5 41.28937149047852 93.5 47.5 C 93.5 53.71062850952148 92.28397369384766 59.73468017578125 89.88570404052734 65.40481567382812 C 87.56893157958984 70.88229370117188 84.25196075439453 75.80186462402344 80.02691650390625 80.02691650390625 C 75.80186462402344 84.25196075439453 70.88229370117188 87.56893157958984 65.40481567382812 89.88570404052734 C 59.73468017578125 92.28397369384766 53.71062850952148 93.5 47.5 93.5 Z" stroke="none"/>
                              <path d="M 47.5 3 C 41.49121475219727 3 35.66376876831055 4.176155090332031 30.17950439453125 6.495796203613281 C 24.88084411621094 8.736953735351562 20.12152099609375 11.94598388671875 16.03375244140625 16.03375244140625 C 11.94598388671875 20.12152099609375 8.736953735351562 24.88084411621094 6.495796203613281 30.17950439453125 C 4.176155090332031 35.66376876831055 3 41.49121475219727 3 47.5 C 3 53.50878524780273 4.176155090332031 59.33623123168945 6.495796203613281 64.82049560546875 C 8.736953735351562 70.11915588378906 11.94598388671875 74.87847900390625 16.03375244140625 78.96624755859375 C 20.12152099609375 83.05401611328125 24.88084411621094 86.26304626464844 30.17950439453125 88.50419616699219 C 35.66376876831055 90.82384490966797 41.49121475219727 92 47.5 92 C 53.50878524780273 92 59.33623123168945 90.82384490966797 64.82049560546875 88.50419616699219 C 70.11915588378906 86.26304626464844 74.87847900390625 83.05401611328125 78.96624755859375 78.96624755859375 C 83.05401611328125 74.87847900390625 86.26304626464844 70.11915588378906 88.50419616699219 64.82049560546875 C 90.82384490966797 59.33623123168945 92 53.50878524780273 92 47.5 C 92 41.49121475219727 90.82384490966797 35.66376876831055 88.50419616699219 30.17950439453125 C 86.26304626464844 24.88084411621094 83.05401611328125 20.12152099609375 78.96624755859375 16.03375244140625 C 74.87847900390625 11.94598388671875 70.11915588378906 8.736953735351562 64.82049560546875 6.495796203613281 C 59.33623123168945 4.176155090332031 53.50878524780273 3 47.5 3 M 47.5 0 C 73.7335205078125 0 95 21.2664794921875 95 47.5 C 95 73.7335205078125 73.7335205078125 95 47.5 95 C 21.2664794921875 95 0 73.7335205078125 0 47.5 C 0 21.2664794921875 21.2664794921875 0 47.5 0 Z" stroke="none" fill="#817489"/>
                            </g>
                          </g>
                        </g>
                      </g>
                    </g>
                  </g>
                </g>
              </g>
            </g>
          </g>
        </g>
      </g>
    </g>
    <g id="world_14219759" transform="translate(216.997 7608.434)">
      <path id="Path_1041007" data-name="Path 1041007" d="M5,32V24a4,4,0,0,1,4-4h5.54A3.989,3.989,0,0,0,14,22V32" fill="#f5dd90"/>
      <path id="Path_1041008" data-name="Path 1041008" d="M59,32V24a4,4,0,0,0-4-4H49.46A3.989,3.989,0,0,1,50,22V32" fill="#f5dd90"/>
      <path id="Path_1041009" data-name="Path 1041009" d="M14,32V22a4,4,0,0,1,4-4H46a4,4,0,0,1,4,4V32" fill="#8b8c89"/>
      <g id="Group_1180044" data-name="Group 1180044">
        <path id="Path_1041010" data-name="Path 1041010" d="M30,32V27a1,1,0,0,1,1-1h2a1,1,0,0,1,1,1v5" fill="#f5dd90"/>
        <path id="Path_1041011" data-name="Path 1041011" d="M20,32V27a1,1,0,0,1,1-1h2a1,1,0,0,1,1,1v5" fill="#f5dd90"/>
        <path id="Path_1041012" data-name="Path 1041012" d="M40,32V27a1,1,0,0,1,1-1h2a1,1,0,0,1,1,1v5" fill="#f5dd90"/>
      </g>
      <path id="Path_1041013" data-name="Path 1041013" d="M24,12a8,8,0,0,1,16,0" fill="#8b8c89"/>
      <path id="Path_1041014" data-name="Path 1041014" d="M22,18V14a2.006,2.006,0,0,1,2-2H40a2.006,2.006,0,0,1,2,2v4" fill="#f5dd90"/>
      <path id="Path_1041015" data-name="Path 1041015" d="M62,32A30,30,0,0,1,2,32Z" fill="#57cc99"/>
      <path id="Path_1041016" data-name="Path 1041016" d="M47,32c0,16.57-6.72,30-15,30S17,48.57,17,32" fill="#c7f9cc"/>
      <path id="Path_1041017" data-name="Path 1041017" d="M53.41,53a29.966,29.966,0,0,0-42.82,0,29.966,29.966,0,0,0,42.82,0Z" fill="#80ed99"/>
      <path id="Path_1041018" data-name="Path 1041018" d="M46,9c2,0,2,2,4,2s2-2,4-2,2,2,4,2V5c-2,0-2-2-4-2s-2,2-4,2-2-2-4-2" fill="#f76c5e"/>
      <path id="Path_1041019" data-name="Path 1041019" d="M18,9c-2,0-2,2-4,2s-2-2-4-2-2,2-4,2V5c2,0,2-2,4-2s2,2,4,2,2-2,4-2" fill="#f76c5e"/>
      <path id="Path_1041020" data-name="Path 1041020" d="M62,31H60V24a5,5,0,0,0-5-5H49.97A5.013,5.013,0,0,0,47,17.1V10.43c.09.08.18.17.29.28a3.492,3.492,0,0,0,5.42,0c.49-.49.73-.71,1.29-.71s.8.22,1.29.71A3.554,3.554,0,0,0,58,12a1,1,0,0,0,1-1V5a1,1,0,0,0-1-1c-.55,0-.8-.22-1.29-.71a3.492,3.492,0,0,0-5.42,0C50.8,3.78,50.56,4,50,4s-.8-.22-1.29-.71A4.1,4.1,0,0,0,47,2.14V1H45V17H43V14a2.993,2.993,0,0,0-2.04-2.83,9,9,0,0,0-17.92,0A2.993,2.993,0,0,0,21,14v3H19V1H17V2.15A4.013,4.013,0,0,0,15.29,3.3c-.49.49-.73.71-1.29.71s-.8-.22-1.29-.71a3.492,3.492,0,0,0-5.42,0c-.49.49-.73.71-1.29.71a1,1,0,0,0-1,1v6a1,1,0,0,0,1,1,3.6,3.6,0,0,0,2.71-1.29c.49-.49.73-.71,1.29-.71s.8.22,1.29.71a3.492,3.492,0,0,0,5.42,0c.11-.11.2-.2.29-.28v6.67a5.013,5.013,0,0,0-2.97,1.9H9a5,5,0,0,0-5,5v7H2a1,1,0,0,0-1,1,31,31,0,0,0,62,0,1,1,0,0,0-1-1ZM47,4.43c.09.08.18.17.29.28A3.554,3.554,0,0,0,50,6a3.586,3.586,0,0,0,2.71-1.29C53.2,4.22,53.44,4,54,4s.8.22,1.29.71A4.013,4.013,0,0,0,57,5.86V9.58a3.957,3.957,0,0,1-.29-.29,3.492,3.492,0,0,0-5.42,0c-.49.49-.73.71-1.29.71s-.8-.22-1.29-.71A4.1,4.1,0,0,0,47,8.14V4.42ZM55,21a3.009,3.009,0,0,1,3,3v7H55V28H53v3H51V22a5.468,5.468,0,0,0-.1-1ZM32,5a7,7,0,0,1,6.92,6H25.08A7,7,0,0,1,32,5Zm-9,9a1,1,0,0,1,1-1H40a1,1,0,0,1,1,1v3H38V15H36v2H33V15H31v2H28V15H26v2H23ZM15.29,9.29c-.49.49-.73.71-1.29.71s-.8-.22-1.29-.71a3.492,3.492,0,0,0-5.42,0L7,9.58V5.86A4.013,4.013,0,0,0,8.71,4.71C9.2,4.22,9.44,4,10,4s.8.22,1.29.71A3.554,3.554,0,0,0,14,6a3.586,3.586,0,0,0,2.71-1.29c.11-.11.2-.2.29-.28V8.15A4.013,4.013,0,0,0,15.29,9.3ZM15,22a3.009,3.009,0,0,1,3-3H46a3.009,3.009,0,0,1,3,3v9H45V27a2.006,2.006,0,0,0-2-2H41a2.006,2.006,0,0,0-2,2v4H35V27a2.006,2.006,0,0,0-2-2H31a2.006,2.006,0,0,0-2,2v4H25V27a2.006,2.006,0,0,0-2-2H21a2.006,2.006,0,0,0-2,2v4H15ZM45.99,33a53.243,53.243,0,0,1-1.67,12.54,31.148,31.148,0,0,0-24.64,0A53.77,53.77,0,0,1,18.01,33H45.98ZM21,31V27h2v4Zm10,0V27h2v4Zm10,0V27h2v4ZM6,24a3.009,3.009,0,0,1,3-3h4.1a4.712,4.712,0,0,0-.1,1v9H11V28H9v3H6ZM3.02,33h13a56.118,56.118,0,0,0,1.77,13.44,30.8,30.8,0,0,0-7.16,5.13A28.872,28.872,0,0,1,3.02,33Zm9.01,20a28.839,28.839,0,0,1,6.33-4.6c1.63,5.16,4.02,9.27,6.9,11.8A29.08,29.08,0,0,1,12.03,53ZM32,61c-4.86,0-9.24-5.46-11.76-13.52a29.123,29.123,0,0,1,23.52,0C41.24,55.54,36.86,61,32,61Zm6.75-.8c2.87-2.53,5.27-6.64,6.9-11.8A29.077,29.077,0,0,1,51.98,53a28.937,28.937,0,0,1-13.23,7.2Zm14.62-8.63a30.8,30.8,0,0,0-7.16-5.13A55.686,55.686,0,0,0,47.98,33h13A28.872,28.872,0,0,1,53.37,51.57Z"/>
    </g>
  </g>
</svg>
