<svg xmlns="http://www.w3.org/2000/svg" xmlns:xlink="http://www.w3.org/1999/xlink" width="113" height="113" viewBox="0 0 113 113">
  <defs>
    <filter id="Path_982547" x="0" y="0" width="113" height="113" filterUnits="userSpaceOnUse">
      <feOffset dy="3" input="SourceAlpha"/>
      <feGaussianBlur stdDeviation="3" result="blur"/>
      <feFlood flood-opacity="0.161"/>
      <feComposite operator="in" in2="blur"/>
      <feComposite in="SourceGraphic"/>
    </filter>
  </defs>
  <g id="Group_1180078" data-name="Group 1180078" transform="translate(-190 -2217)">
    <g id="Group_1173625" data-name="Group 1173625" transform="translate(0 -1987)">
      <g id="Group_1172175" data-name="Group 1172175" transform="translate(-0.514 180)">
        <g id="Group_1167986" data-name="Group 1167986" transform="translate(199.514 4030)">
          <g id="Group_1167464" data-name="Group 1167464">
            <g id="Group_1164308" data-name="Group 1164308" transform="translate(0)">
              <g id="Group_1163948" data-name="Group 1163948">
                <g id="Group_1158168" data-name="Group 1158168">
                  <g id="Group_1152576" data-name="Group 1152576">
                    <g id="Group_1148633" data-name="Group 1148633">
                      <g id="Group_1148525" data-name="Group 1148525">
                        <g transform="matrix(1, 0, 0, 1, -9, -6)" filter="url(#Path_982547)">
                          <g id="Path_982547-2" data-name="Path 982547" transform="translate(9 6)" fill="#f2f7f5">
                            <path d="M 47.5 93.5 C 41.28937149047852 93.5 35.26533508300781 92.28397369384766 29.59518623352051 89.88570404052734 C 24.11771965026855 87.56893157958984 19.19813346862793 84.25196075439453 14.97309303283691 80.02691650390625 C 10.74804019927979 75.80186462402344 7.431066513061523 70.88229370117188 5.114293098449707 65.40481567382812 C 2.716026782989502 59.73468017578125 1.5 53.71062850952148 1.5 47.5 C 1.5 41.28937149047852 2.716026782989502 35.26533508300781 5.114293098449707 29.59518623352051 C 7.431066513061523 24.11771965026855 10.74804019927979 19.19813346862793 14.97309303283691 14.97309303283691 C 19.19813346862793 10.74804019927979 24.11771965026855 7.431066513061523 29.59518623352051 5.114293098449707 C 35.26533508300781 2.716026782989502 41.28937149047852 1.5 47.5 1.5 C 53.71062850952148 1.5 59.73468017578125 2.716026782989502 65.40481567382812 5.114293098449707 C 70.88229370117188 7.431066513061523 75.80186462402344 10.74804019927979 80.02691650390625 14.97309303283691 C 84.25196075439453 19.19813346862793 87.56893157958984 24.11771965026855 89.88570404052734 29.59518623352051 C 92.28397369384766 35.26533508300781 93.5 41.28937149047852 93.5 47.5 C 93.5 53.71062850952148 92.28397369384766 59.73468017578125 89.88570404052734 65.40481567382812 C 87.56893157958984 70.88229370117188 84.25196075439453 75.80186462402344 80.02691650390625 80.02691650390625 C 75.80186462402344 84.25196075439453 70.88229370117188 87.56893157958984 65.40481567382812 89.88570404052734 C 59.73468017578125 92.28397369384766 53.71062850952148 93.5 47.5 93.5 Z" stroke="none"/>
                            <path d="M 47.5 3 C 41.49121475219727 3 35.66376876831055 4.176155090332031 30.17950439453125 6.495796203613281 C 24.88084411621094 8.736953735351562 20.12152099609375 11.94598388671875 16.03375244140625 16.03375244140625 C 11.94598388671875 20.12152099609375 8.736953735351562 24.88084411621094 6.495796203613281 30.17950439453125 C 4.176155090332031 35.66376876831055 3 41.49121475219727 3 47.5 C 3 53.50878524780273 4.176155090332031 59.33623123168945 6.495796203613281 64.82049560546875 C 8.736953735351562 70.11915588378906 11.94598388671875 74.87847900390625 16.03375244140625 78.96624755859375 C 20.12152099609375 83.05401611328125 24.88084411621094 86.26304626464844 30.17950439453125 88.50419616699219 C 35.66376876831055 90.82384490966797 41.49121475219727 92 47.5 92 C 53.50878524780273 92 59.33623123168945 90.82384490966797 64.82049560546875 88.50419616699219 C 70.11915588378906 86.26304626464844 74.87847900390625 83.05401611328125 78.96624755859375 78.96624755859375 C 83.05401611328125 74.87847900390625 86.26304626464844 70.11915588378906 88.50419616699219 64.82049560546875 C 90.82384490966797 59.33623123168945 92 53.50878524780273 92 47.5 C 92 41.49121475219727 90.82384490966797 35.66376876831055 88.50419616699219 30.17950439453125 C 86.26304626464844 24.88084411621094 83.05401611328125 20.12152099609375 78.96624755859375 16.03375244140625 C 74.87847900390625 11.94598388671875 70.11915588378906 8.736953735351562 64.82049560546875 6.495796203613281 C 59.33623123168945 4.176155090332031 53.50878524780273 3 47.5 3 M 47.5 0 C 73.7335205078125 0 95 21.2664794921875 95 47.5 C 95 73.7335205078125 73.7335205078125 95 47.5 95 C 21.2664794921875 95 0 73.7335205078125 0 47.5 C 0 21.2664794921875 21.2664794921875 0 47.5 0 Z" stroke="none" fill="#4a665c"/>
                          </g>
                        </g>
                      </g>
                    </g>
                  </g>
                </g>
              </g>
            </g>
          </g>
        </g>
      </g>
    </g>
    <g id="support_10203613" transform="translate(212.5 2237.5)">
      <g id="Group_1179933" data-name="Group 1179933" transform="translate(7.5 7.5)">
        <path id="Path_1040762" data-name="Path 1040762" d="M64.548,175.319v4.85l-12.154,3.038-7.244,1.811v-9.7a9.7,9.7,0,1,1,19.4,0Z" transform="translate(-41.108 -148.646)" fill="#00aede"/>
        <path id="Path_1040763" data-name="Path 1040763" d="M55.14,170.1a6.783,6.783,0,0,0-2.746,5.4v8.155l-7.244,1.811v-9.7a9.7,9.7,0,0,1,8.678-9.646Z" transform="translate(-41.108 -149.092)" fill="#0097d1"/>
        <path id="Path_1040764" data-name="Path 1040764" d="M305.488,175.32v13.741l-10.1-1.262-9.3-1.163V175.32a9.7,9.7,0,1,1,19.4,0Z" transform="translate(-256.183 -148.647)" fill="#55d47b"/>
        <path id="Path_1040765" data-name="Path 1040765" d="M297.85,170.334a6.268,6.268,0,0,0-2.462,5.247v13.092l-9.3-1.163V176.195a9.7,9.7,0,0,1,8.267-9.594Z" transform="translate(-256.183 -149.521)" fill="#00c755"/>
        <path id="Path_1040766" data-name="Path 1040766" d="M299.575,18.008a10.509,10.509,0,0,1-8.446,10.3l-7.019-1.038A10.509,10.509,0,0,1,289.067,7.5h.054a10.5,10.5,0,0,1,10.454,10.506Z" transform="translate(-249.461 -7.5)" fill="#ffddcf"/>
        <path id="Path_1040767" data-name="Path 1040767" d="M291.129,28.312a10.44,10.44,0,0,1-1.77.2c-.1,0-.193,0-.291,0a10.508,10.508,0,0,1,0-21.015h.054a10.476,10.476,0,0,1,2.806.394C289.607,11.278,286.087,18.746,291.129,28.312Z" transform="translate(-249.461 -7.5)" fill="#ffcbbe"/>
        <path id="Path_1040768" data-name="Path 1040768" d="M58.635,18.008a10.507,10.507,0,0,1-10.217,10.5L42.075,26.6h0A10.508,10.508,0,0,1,48.128,7.5h.054A10.506,10.506,0,0,1,58.635,18.008Z" transform="translate(-34.387 -7.5)" fill="#ffddcf"/>
        <path id="Path_1040769" data-name="Path 1040769" d="M48.42,28.513c-.1,0-.193,0-.291,0a10.508,10.508,0,0,1,0-21.015h.054C46.577,9.513,40.541,18.3,48.42,28.513Z" transform="translate(-34.388 -7.502)" fill="#ffcbbe"/>
        <path id="Path_1040770" data-name="Path 1040770" d="M185.018,197.9v4.849h-19.4v-3.844l3.645-8.581h0a9.7,9.7,0,0,1,15.754,7.578Z" transform="translate(-148.646 -168.803)" fill="#fad989"/>
        <path id="Path_1040771" data-name="Path 1040771" d="M175.61,193.335a5.523,5.523,0,0,0-2.12,4.592v5.919h-7.87V199a9.7,9.7,0,0,1,8.1-9.568Z" transform="translate(-148.646 -169.899)" fill="#f6ca56"/>
        <path id="Path_1040772" data-name="Path 1040772" d="M195.048,40.6a10.507,10.507,0,0,1-10.217,10.5l-8.881-9.454,3.633-10.314h0a10.456,10.456,0,0,1,4.957-1.241h.054A10.506,10.506,0,0,1,195.048,40.6Z" transform="translate(-157.867 -27.665)" fill="#ffddcf"/>
        <path id="Path_1040773" data-name="Path 1040773" d="M168.888,51.1c-.1,0-.193,0-.291,0a10.508,10.508,0,0,1,0-21.015h.054C167.045,32.1,161.009,40.89,168.888,51.1Z" transform="translate(-141.924 -27.664)" fill="#ffcbbe"/>
        <path id="Path_1040774" data-name="Path 1040774" d="M58.926,310.993l-8.817,5.251c-.118.071-.237.141-.356.209a22.119,22.119,0,0,1-18.11,1.651q-.359-.124-.717-.259l-.63-.239a22.364,22.364,0,0,0-12.526-.977l-8.329,1.749A1.611,1.611,0,0,1,7.5,316.8v-9.89a1.611,1.611,0,0,1,.973-1.479l3.069-1.323,20.8-3.438a17.947,17.947,0,0,0,1.951.541,15.7,15.7,0,0,0,2.719.384l7.249.236a3.815,3.815,0,0,1,3.672,3.631,3.776,3.776,0,0,1-.07.925l.731.245,1.02-.806,6.1-1.955a3.931,3.931,0,0,1,3.21,7.121Z" transform="translate(-7.5 -269.199)" fill="#ffddcf"/>
        <path id="Path_1040775" data-name="Path 1040775" d="M31.643,306.148q-.359-.124-.717-.259l-.63-.239a22.364,22.364,0,0,0-12.526-.977l-8.329,1.749A1.611,1.611,0,0,1,7.5,304.846v-9.89a1.611,1.611,0,0,1,.973-1.479l11.6-5a14.715,14.715,0,0,1,11.6-.021c.206.088.434.174.677.257C32.344,288.715,23.9,295.492,31.643,306.148Z" transform="translate(-7.5 -257.243)" fill="#ffcbbe"/>
      </g>
      <g id="Group_1179934" data-name="Group 1179934" transform="translate(7.5 7.5)">
        <path id="Path_1040776" data-name="Path 1040776" d="M433.49,185.91a9.676,9.676,0,0,1,3.575,7.521v7.707" transform="translate(-387.76 -166.758)" fill="none" stroke="#000" stroke-linecap="round" stroke-linejoin="round" stroke-miterlimit="10" stroke-width="1.5"/>
        <path id="Path_1040777" data-name="Path 1040777" d="M306,27.278a10.509,10.509,0,1,0-2.927-16.224" transform="translate(-271.34 -7.5)" fill="none" stroke="#000" stroke-linecap="round" stroke-linejoin="round" stroke-miterlimit="10" stroke-width="1.5"/>
        <path id="Path_1040778" data-name="Path 1040778" d="M45.25,192.984a9.672,9.672,0,0,1,3.564-7.074" transform="translate(-41.198 -166.758)" fill="none" stroke="#000" stroke-linecap="round" stroke-linejoin="round" stroke-miterlimit="10" stroke-width="1.5"/>
        <line id="Line_1225" data-name="Line 1225" y1="4.819" transform="translate(4.042 29.984)" fill="none" stroke="#000" stroke-linecap="round" stroke-linejoin="round" stroke-miterlimit="10" stroke-width="1.5"/>
        <path id="Path_1040779" data-name="Path 1040779" d="M56,11.054a10.505,10.505,0,1,0-2.927,16.224" transform="translate(-34.387 -7.5)" fill="none" stroke="#000" stroke-linecap="round" stroke-linejoin="round" stroke-miterlimit="10" stroke-width="1.5"/>
        <path id="Path_1040780" data-name="Path 1040780" d="M165.62,216.918v-.9a9.678,9.678,0,0,1,3.575-7.521" transform="translate(-148.646 -186.922)" fill="none" stroke="#000" stroke-linecap="round" stroke-linejoin="round" stroke-miterlimit="10" stroke-width="1.5"/>
        <path id="Path_1040781" data-name="Path 1040781" d="M313.02,208.5a9.676,9.676,0,0,1,3.575,7.521v3.415" transform="translate(-280.222 -186.922)" fill="none" stroke="#000" stroke-linecap="round" stroke-linejoin="round" stroke-miterlimit="10" stroke-width="1.5"/>
        <path id="Path_1040782" data-name="Path 1040782" d="M178.769,37.952a10.514,10.514,0,1,1-1.582-3.408" transform="translate(-141.924 -27.665)" fill="none" stroke="#000" stroke-linecap="round" stroke-linejoin="round" stroke-miterlimit="10" stroke-width="1.5"/>
        <path id="Path_1040783" data-name="Path 1040783" d="M52.782,302.7l6.145-3.66a3.931,3.931,0,0,0-3.21-7.121l-7.851,2.516a3.815,3.815,0,0,0-3.6-4.556l-7.249-.236a17.779,17.779,0,0,1-5.347-1.183,14.715,14.715,0,0,0-11.6.021l-11.6,5a1.611,1.611,0,0,0-.973,1.479v9.89a1.611,1.611,0,0,0,1.941,1.576l8.329-1.749a22.363,22.363,0,0,1,12.526.977l.63.239a22.144,22.144,0,0,0,18.623-1.279" transform="translate(-7.5 -257.243)" fill="none" stroke="#000" stroke-linecap="round" stroke-linejoin="round" stroke-miterlimit="10" stroke-width="1.5"/>
        <path id="Path_1040784" data-name="Path 1040784" d="M286.464,353.931a3.815,3.815,0,0,1-3.244,3.037l-8.43.654" transform="translate(-246.095 -316.741)" fill="none" stroke="#000" stroke-linecap="round" stroke-linejoin="round" stroke-miterlimit="10" stroke-width="1.5"/>
      </g>
    </g>
  </g>
</svg>
