<svg xmlns="http://www.w3.org/2000/svg" xmlns:xlink="http://www.w3.org/1999/xlink" width="113" height="113" viewBox="0 0 113 113">
  <defs>
    <filter id="Path_982547" x="0" y="0" width="113" height="113" filterUnits="userSpaceOnUse">
      <feOffset dy="3" input="SourceAlpha"/>
      <feGaussianBlur stdDeviation="3" result="blur"/>
      <feFlood flood-opacity="0.161"/>
      <feComposite operator="in" in2="blur"/>
      <feComposite in="SourceGraphic"/>
    </filter>
    <clipPath id="clip-path">
      <path id="path1575" d="M0-682.665H59.526v59.526H0Z" transform="translate(0 682.665)"/>
    </clipPath>
  </defs>
  <g id="Group_1180067" data-name="Group 1180067" transform="translate(-1206 -4670)">
    <g id="Group_1179926" data-name="Group 1179926" transform="translate(0 23)">
      <g id="Group_1172828" data-name="Group 1172828" transform="translate(-10.5 3400.564)">
        <g id="Group_1172154" data-name="Group 1172154" transform="translate(0 -51.709)">
          <g id="Group_1171049" data-name="Group 1171049" transform="translate(1225.5 1304.145)">
            <g id="Group_1148525" data-name="Group 1148525" transform="translate(0)">
              <g transform="matrix(1, 0, 0, 1, -9, -6)" filter="url(#Path_982547)">
                <g id="Path_982547-2" data-name="Path 982547" transform="translate(9 6)" fill="#f2f7f5">
                  <path d="M 47.5 93.5 C 41.28937149047852 93.5 35.26533508300781 92.28397369384766 29.59518623352051 89.88570404052734 C 24.11771965026855 87.56893157958984 19.19813346862793 84.25196075439453 14.97309303283691 80.02691650390625 C 10.74804019927979 75.80186462402344 7.431066513061523 70.88229370117188 5.114293098449707 65.40481567382812 C 2.716026782989502 59.73468017578125 1.5 53.71062850952148 1.5 47.5 C 1.5 41.28937149047852 2.716026782989502 35.26533508300781 5.114293098449707 29.59518623352051 C 7.431066513061523 24.11771965026855 10.74804019927979 19.19813346862793 14.97309303283691 14.97309303283691 C 19.19813346862793 10.74804019927979 24.11771965026855 7.431066513061523 29.59518623352051 5.114293098449707 C 35.26533508300781 2.716026782989502 41.28937149047852 1.5 47.5 1.5 C 53.71062850952148 1.5 59.73468017578125 2.716026782989502 65.40481567382812 5.114293098449707 C 70.88229370117188 7.431066513061523 75.80186462402344 10.74804019927979 80.02691650390625 14.97309303283691 C 84.25196075439453 19.19813346862793 87.56893157958984 24.11771965026855 89.88570404052734 29.59518623352051 C 92.28397369384766 35.26533508300781 93.5 41.28937149047852 93.5 47.5 C 93.5 53.71062850952148 92.28397369384766 59.73468017578125 89.88570404052734 65.40481567382812 C 87.56893157958984 70.88229370117188 84.25196075439453 75.80186462402344 80.02691650390625 80.02691650390625 C 75.80186462402344 84.25196075439453 70.88229370117188 87.56893157958984 65.40481567382812 89.88570404052734 C 59.73468017578125 92.28397369384766 53.71062850952148 93.5 47.5 93.5 Z" stroke="none"/>
                  <path d="M 47.5 3 C 41.49121475219727 3 35.66376876831055 4.176155090332031 30.17950439453125 6.495796203613281 C 24.88084411621094 8.736953735351562 20.12152099609375 11.94598388671875 16.03375244140625 16.03375244140625 C 11.94598388671875 20.12152099609375 8.736953735351562 24.88084411621094 6.495796203613281 30.17950439453125 C 4.176155090332031 35.66376876831055 3 41.49121475219727 3 47.5 C 3 53.50878524780273 4.176155090332031 59.33623123168945 6.495796203613281 64.82049560546875 C 8.736953735351562 70.11915588378906 11.94598388671875 74.87847900390625 16.03375244140625 78.96624755859375 C 20.12152099609375 83.05401611328125 24.88084411621094 86.26304626464844 30.17950439453125 88.50419616699219 C 35.66376876831055 90.82384490966797 41.49121475219727 92 47.5 92 C 53.50878524780273 92 59.33623123168945 90.82384490966797 64.82049560546875 88.50419616699219 C 70.11915588378906 86.26304626464844 74.87847900390625 83.05401611328125 78.96624755859375 78.96624755859375 C 83.05401611328125 74.87847900390625 86.26304626464844 70.11915588378906 88.50419616699219 64.82049560546875 C 90.82384490966797 59.33623123168945 92 53.50878524780273 92 47.5 C 92 41.49121475219727 90.82384490966797 35.66376876831055 88.50419616699219 30.17950439453125 C 86.26304626464844 24.88084411621094 83.05401611328125 20.12152099609375 78.96624755859375 16.03375244140625 C 74.87847900390625 11.94598388671875 70.11915588378906 8.736953735351562 64.82049560546875 6.495796203613281 C 59.33623123168945 4.176155090332031 53.50878524780273 3 47.5 3 M 47.5 0 C 73.7335205078125 0 95 21.2664794921875 95 47.5 C 95 73.7335205078125 73.7335205078125 95 47.5 95 C 21.2664794921875 95 0 73.7335205078125 0 47.5 C 0 21.2664794921875 21.2664794921875 0 47.5 0 Z" stroke="none" fill="#4a665c"/>
                </g>
              </g>
            </g>
          </g>
        </g>
      </g>
      <g id="g1569" transform="translate(1232 5353.665)">
        <g id="g1571" transform="translate(0 -682.665)">
          <g id="g1573" clip-path="url(#clip-path)">
            <g id="g1579" transform="translate(8.144 11.254)">
              <path id="path1581" d="M-234.357-452.872c.695.569,1.041.878,1.39.891.346-.013.695-.323,1.389-.891l18.32-18.75a15.7,15.7,0,0,0,0-21.077c-4.923-5.266-13.008-4.1-18.137.947l-.964.947c-.558.549-.665.549-1.237-.013l-.947-.934c-5.119-5.047-13.214-6.213-18.137-.947a15.7,15.7,0,0,0,0,21.077l2.2,2.251Z" transform="translate(256.744 496.133)" fill="#fd8087" fill-rule="evenodd"/>
            </g>
            <g id="g1583" transform="translate(25.202 11.256)">
              <path id="path1585" d="M-110.419-26.532A23.211,23.211,0,0,1-106.253-13.3c0,.532-.02,1.057-.057,1.576A23.252,23.252,0,0,1-110.5.06a25.244,25.244,0,0,1-3.67,4.176,26.391,26.391,0,0,1-4.907,3.54q-.917.514-1.885.964l5.329,5.452c.695.569,1.041.878,1.39.891.346-.013.695-.323,1.39-.891l5.6-5.738L-94.539-4.557a15.747,15.747,0,0,0,2.7-17.008,14.868,14.868,0,0,0-2.7-4.069,10.945,10.945,0,0,0-2.44-1.961,11.675,11.675,0,0,0-9.411-.878,15.145,15.145,0,0,0-4.029,1.941" transform="translate(120.966 29.066)" fill="#fe636e" fill-rule="evenodd"/>
            </g>
            <g id="g1587" transform="translate(17.347 23.285)">
              <path id="path1589" d="M0-68.351H5.448l2.3-3.826,2.839,4.511L14.72-74.88,19.975-65.3l3.062-5.14H30.3" transform="translate(0 74.88)" fill="none" stroke="#000" stroke-linecap="round" stroke-linejoin="round" stroke-miterlimit="10" stroke-width="1.5"/>
            </g>
            <g id="g1591" transform="translate(39.722 1.337)">
              <path id="path1593" d="M-99.108-198.2a9.484,9.484,0,0,0,9.464-9.468,9.483,9.483,0,0,0-9.464-9.465,9.484,9.484,0,0,0-9.467,9.465,9.484,9.484,0,0,0,9.467,9.468" transform="translate(108.576 217.129)" fill="#f8f2f0" fill-rule="evenodd"/>
            </g>
            <g id="g1595" transform="translate(45.37 1.337)">
              <path id="path1597" d="M-4.454-6.543A9.466,9.466,0,0,1,1.193,2.121c0,.06,0,.12,0,.176A9.368,9.368,0,0,1,.6,5.425,9.49,9.49,0,0,1-4.88,10.96a9.381,9.381,0,0,0,3.82.8,9.425,9.425,0,0,0,5.136-1.513A9.464,9.464,0,0,0,8.4,2.3,9.466,9.466,0,0,0-1.06-7.168a9.422,9.422,0,0,0-3.394.625" transform="translate(4.88 7.168)" fill="#e2e2e2" fill-rule="evenodd"/>
            </g>
            <g id="g1599" transform="translate(39.722 1.337)">
              <path id="path1601" d="M-37.235-21.681a9.42,9.42,0,0,1,5.91-2.071,9.466,9.466,0,0,1,9.464,9.465,9.467,9.467,0,0,1-9.464,9.468,9.467,9.467,0,0,1-9.467-9.468A9.393,9.393,0,0,1-39.8-18.5" transform="translate(40.792 23.752)" fill="none" stroke="#000" stroke-linecap="round" stroke-linejoin="round" stroke-miterlimit="10" stroke-width="1.5"/>
            </g>
            <g id="g1603" transform="translate(8.144 11.254)">
              <path id="path1605" d="M-483.414-78.547a15.739,15.739,0,0,1-2.693,17.008L-498.82-48.526m-29.057-30.743a15.756,15.756,0,0,0,2.35,17.73l2.2,2.251,1.018,1.043m24.359-27.21a15.546,15.546,0,0,0-6.289,3.786l-.964.948c-.558.549-.665.549-1.237-.013l-.947-.934c-5.119-5.047-13.214-6.213-18.137-.947" transform="translate(529.592 86.05)" fill="none" stroke="#000" stroke-linecap="round" stroke-linejoin="round" stroke-miterlimit="10" stroke-width="1.5"/>
            </g>
            <g id="g1607" transform="translate(49.189 7.358)">
              <path id="path1609" d="M0-72.11V-79" transform="translate(0 78.998)" fill="none" stroke="#000" stroke-linecap="round" stroke-linejoin="round" stroke-miterlimit="10" stroke-width="1.5"/>
            </g>
            <g id="g1611" transform="translate(45.746 10.802)">
              <path id="path1613" d="M-72.1,0h-6.888" transform="translate(78.992)" fill="none" stroke="#000" stroke-linecap="round" stroke-linejoin="round" stroke-miterlimit="10" stroke-width="1.5"/>
            </g>
            <g id="g1615" transform="translate(7.005 37.47)">
              <path id="path1617" d="M-20.323-27.781l-1.941,6.3,1.941,6.672,8.942,2.433,7.253,1.971c4.232,1.317,6.1.565,9.993-.685L20.13-15.667c4.1-1.313,3.484-6.945-2.51-5.02L9.645-19.128l-1.3.256a8.628,8.628,0,0,1-4.152.229l-6.372-1.164-1.157-.213A2.027,2.027,0,0,1-2.654-24c1.542.2,3.61.476,5.378.658l.106.01c3.414.346,4.784-2.2,3.564-4.186a4.475,4.475,0,0,0-2.55-1.825l-4.8-.881c-3.115-.572-5.329.14-10.162.934l-2.723.449Z" transform="translate(22.264 30.435)" fill="#fed1a3" fill-rule="evenodd"/>
            </g>
            <g id="g1619" transform="translate(0.872 38.647)">
              <path id="path1621" d="M0-3.654V11.689a.41.41,0,0,0,.449.349H7.622a.411.411,0,0,0,.452-.349V-3.654A.411.411,0,0,0,7.622-4H.449A.41.41,0,0,0,0-3.654" transform="translate(0 4.003)" fill="#99e6fc" fill-rule="evenodd"/>
            </g>
            <g id="g1623" transform="translate(0.872 51.982)">
              <path id="path1625" d="M0,0V2.357a.41.41,0,0,0,.449.349H7.622a.411.411,0,0,0,.452-.349V0a.413.413,0,0,1-.452.349H.449A.412.412,0,0,1,0,0" fill="#62dbfb" fill-rule="evenodd"/>
            </g>
            <g id="g1627" transform="translate(8.947 48.026)">
              <path id="path1629" d="M0-41.414v1.11l8.942,2.434L16.2-35.9c4.232,1.317,6.1.565,9.993-.685l14.264-4.574c2.31-.738,3.121-2.852,2.317-4.212a3.813,3.813,0,0,1-2.317,1.855L26.188-38.941c-3.893,1.247-5.761,2-9.993.685L8.942-40.228,0-42.664Z" transform="translate(0 45.371)" fill="#ffbc85" fill-rule="evenodd"/>
            </g>
            <g id="g1631" transform="translate(24.382 40.669)">
              <path id="path1633" d="M-23.372-9.154a2.017,2.017,0,0,0-1.865,3.178A1.856,1.856,0,0,1-23.372-6.8c1.542.2,3.61.476,5.379.658l.106.01c3.254.329,4.651-1.968,3.72-3.9a2.735,2.735,0,0,1-1.276,1.2,4.574,4.574,0,0,1-2.443.346l-.106-.01c-1.768-.183-3.836-.462-5.379-.658" transform="translate(25.605 10.028)" fill="#ffbc85" fill-rule="evenodd"/>
            </g>
            <g id="g1635" transform="translate(8.947 37.47)">
              <path id="path1637" d="M0-27.781v12.969l8.942,2.433L16.2-10.408c4.232,1.317,6.1.565,9.993-.685l14.264-4.574c4.1-1.313,3.484-6.945-2.51-5.02l-9.278,1.815a8.628,8.628,0,0,1-4.152.229l-7.529-1.376A2.027,2.027,0,0,1,17.668-24c1.576.2,3.693.485,5.485.668,4.717.479,5.528-4.571,1.014-6.011l-4.8-.881c-3.115-.572-5.329.14-10.162.934Z" transform="translate(0 30.435)" fill="none" stroke="#000" stroke-linecap="round" stroke-linejoin="round" stroke-miterlimit="10" stroke-width="1.5"/>
            </g>
            <g id="g1639" transform="translate(0.872 38.647)">
              <path id="path1641" d="M-79.795,0h-7.174a.41.41,0,0,0-.449.349V15.691a.41.41,0,0,0,.449.349h7.174a.411.411,0,0,0,.452-.349V.349A.411.411,0,0,0-79.795,0Z" transform="translate(87.417 0)" fill="none" stroke="#000" stroke-linecap="round" stroke-linejoin="round" stroke-miterlimit="10" stroke-width="1.5"/>
            </g>
          </g>
        </g>
      </g>
    </g>
  </g>
</svg>
