<svg xmlns="http://www.w3.org/2000/svg" xmlns:xlink="http://www.w3.org/1999/xlink" width="113" height="113" viewBox="0 0 113 113">
  <defs>
    <filter id="Path_982547" x="0" y="0" width="113" height="113" filterUnits="userSpaceOnUse">
      <feOffset dy="3" input="SourceAlpha"/>
      <feGaussianBlur stdDeviation="3" result="blur"/>
      <feFlood flood-opacity="0.161"/>
      <feComposite operator="in" in2="blur"/>
      <feComposite in="SourceGraphic"/>
    </filter>
  </defs>
  <g id="Group_1180064" data-name="Group 1180064" transform="translate(-260 -4670)">
    <g id="Group_1179917" data-name="Group 1179917" transform="translate(0 23)">
      <g id="Group_1172831" data-name="Group 1172831" transform="translate(-11.112 3401)">
        <g id="Group_1172151" data-name="Group 1172151" transform="translate(-0.388 -52.145)">
          <g id="Group_1171046" data-name="Group 1171046" transform="translate(280.5 1304.145)">
            <g id="Group_1148525" data-name="Group 1148525" transform="translate(0)">
              <g transform="matrix(1, 0, 0, 1, -9, -6)" filter="url(#Path_982547)">
                <g id="Path_982547-2" data-name="Path 982547" transform="translate(9 6)" fill="#f2f7f5">
                  <path d="M 47.5 93.5 C 41.28937149047852 93.5 35.26533508300781 92.28397369384766 29.59518623352051 89.88570404052734 C 24.11771965026855 87.56893157958984 19.19813346862793 84.25196075439453 14.97309303283691 80.02691650390625 C 10.74804019927979 75.80186462402344 7.431066513061523 70.88229370117188 5.114293098449707 65.40481567382812 C 2.716026782989502 59.73468017578125 1.5 53.71062850952148 1.5 47.5 C 1.5 41.28937149047852 2.716026782989502 35.26533508300781 5.114293098449707 29.59518623352051 C 7.431066513061523 24.11771965026855 10.74804019927979 19.19813346862793 14.97309303283691 14.97309303283691 C 19.19813346862793 10.74804019927979 24.11771965026855 7.431066513061523 29.59518623352051 5.114293098449707 C 35.26533508300781 2.716026782989502 41.28937149047852 1.5 47.5 1.5 C 53.71062850952148 1.5 59.73468017578125 2.716026782989502 65.40481567382812 5.114293098449707 C 70.88229370117188 7.431066513061523 75.80186462402344 10.74804019927979 80.02691650390625 14.97309303283691 C 84.25196075439453 19.19813346862793 87.56893157958984 24.11771965026855 89.88570404052734 29.59518623352051 C 92.28397369384766 35.26533508300781 93.5 41.28937149047852 93.5 47.5 C 93.5 53.71062850952148 92.28397369384766 59.73468017578125 89.88570404052734 65.40481567382812 C 87.56893157958984 70.88229370117188 84.25196075439453 75.80186462402344 80.02691650390625 80.02691650390625 C 75.80186462402344 84.25196075439453 70.88229370117188 87.56893157958984 65.40481567382812 89.88570404052734 C 59.73468017578125 92.28397369384766 53.71062850952148 93.5 47.5 93.5 Z" stroke="none"/>
                  <path d="M 47.5 3 C 41.49121475219727 3 35.66376876831055 4.176155090332031 30.17950439453125 6.495796203613281 C 24.88084411621094 8.736953735351562 20.12152099609375 11.94598388671875 16.03375244140625 16.03375244140625 C 11.94598388671875 20.12152099609375 8.736953735351562 24.88084411621094 6.495796203613281 30.17950439453125 C 4.176155090332031 35.66376876831055 3 41.49121475219727 3 47.5 C 3 53.50878524780273 4.176155090332031 59.33623123168945 6.495796203613281 64.82049560546875 C 8.736953735351562 70.11915588378906 11.94598388671875 74.87847900390625 16.03375244140625 78.96624755859375 C 20.12152099609375 83.05401611328125 24.88084411621094 86.26304626464844 30.17950439453125 88.50419616699219 C 35.66376876831055 90.82384490966797 41.49121475219727 92 47.5 92 C 53.50878524780273 92 59.33623123168945 90.82384490966797 64.82049560546875 88.50419616699219 C 70.11915588378906 86.26304626464844 74.87847900390625 83.05401611328125 78.96624755859375 78.96624755859375 C 83.05401611328125 74.87847900390625 86.26304626464844 70.11915588378906 88.50419616699219 64.82049560546875 C 90.82384490966797 59.33623123168945 92 53.50878524780273 92 47.5 C 92 41.49121475219727 90.82384490966797 35.66376876831055 88.50419616699219 30.17950439453125 C 86.26304626464844 24.88084411621094 83.05401611328125 20.12152099609375 78.96624755859375 16.03375244140625 C 74.87847900390625 11.94598388671875 70.11915588378906 8.736953735351562 64.82049560546875 6.495796203613281 C 59.33623123168945 4.176155090332031 53.50878524780273 3 47.5 3 M 47.5 0 C 73.7335205078125 0 95 21.2664794921875 95 47.5 C 95 73.7335205078125 73.7335205078125 95 47.5 95 C 21.2664794921875 95 0 73.7335205078125 0 47.5 C 0 21.2664794921875 21.2664794921875 0 47.5 0 Z" stroke="none" fill="#4a665c"/>
                </g>
              </g>
            </g>
          </g>
        </g>
      </g>
      <g id="politician_6528211" transform="translate(208.897 4658.5)">
        <path id="Path_1040659" data-name="Path 1040659" d="M198.389,233.359H176.541v-6.3a8.8,8.8,0,0,1,8.8-8.8h4.239a8.8,8.8,0,0,1,8.8,8.8Z" transform="translate(-79.73 -181.781)" fill="#a2dbff"/>
        <path id="Path_1040660" data-name="Path 1040660" d="M254.087,218.257h-2.762a8.8,8.8,0,0,1,8.8,8.8v6.3h2.762v-6.3A8.8,8.8,0,0,0,254.087,218.257Z" transform="translate(-144.233 -181.782)" fill="#64caff"/>
        <path id="Path_1040661" data-name="Path 1040661" d="M189.585,218.257h-4.239a8.8,8.8,0,0,0-8.8,8.8v6.3h21.848v-6.3A8.8,8.8,0,0,0,189.585,218.257Z" transform="translate(-79.73 -181.782)" fill="none" stroke="#000" stroke-linecap="round" stroke-linejoin="round" stroke-miterlimit="10" stroke-width="1.5"/>
        <path id="Path_1040662" data-name="Path 1040662" d="M242.189,244.991h-5.237l1.368-13.248h2.5Z" transform="translate(-131.836 -193.414)" fill="#ff546a"/>
        <path id="Path_1040663" data-name="Path 1040663" d="M242.189,244.991h-5.237l1.368-13.248h2.5Z" transform="translate(-131.836 -193.414)" fill="none" stroke="#000" stroke-linecap="round" stroke-linejoin="round" stroke-miterlimit="10" stroke-width="1.5"/>
        <path id="Path_1040664" data-name="Path 1040664" d="M244.641,185.472l-.346.281a.969.969,0,0,1-1.222,0l-.346-.281a2.727,2.727,0,0,1-1.006-2.115v-6.911h3.926v6.911A2.727,2.727,0,0,1,244.641,185.472Z" transform="translate(-135.949 -145.719)" fill="#ffb29f"/>
        <path id="Path_1040665" data-name="Path 1040665" d="M244.641,185.472l-.346.281a.969.969,0,0,1-1.222,0l-.346-.281a2.727,2.727,0,0,1-1.006-2.115v-6.911h3.926v6.911A2.727,2.727,0,0,1,244.641,185.472Z" transform="translate(-135.949 -145.719)" fill="none" stroke="#000" stroke-linecap="round" stroke-linejoin="round" stroke-miterlimit="10" stroke-width="1.5"/>
        <path id="Path_1040666" data-name="Path 1040666" d="M197.692,29.233H183.848a3.475,3.475,0,0,1-3.475-3.475V16.975c0-.049,0-.207,0-.236A9.474,9.474,0,0,1,189.847,7.5h1.845a9.475,9.475,0,0,1,9.468,9.132q.006.171.006.343v8.784A3.475,3.475,0,0,1,197.692,29.233Z" transform="translate(-83.035 0)" fill="#6c5e69"/>
        <path id="Path_1040667" data-name="Path 1040667" d="M251.035,7.5h-1.861a9.474,9.474,0,0,1,9.459,9.474v8.784a3.475,3.475,0,0,1-3.475,3.475h1.877a3.475,3.475,0,0,0,3.475-3.475V16.975A9.474,9.474,0,0,0,251.035,7.5Z" transform="translate(-142.378 0)" fill="#574d56"/>
        <path id="Path_1040668" data-name="Path 1040668" d="M180.385,16.538c0,.067-.008.133-.01.2,0,.029,0,.187,0,.236v8.784a3.475,3.475,0,0,0,3.475,3.475h13.844a3.475,3.475,0,0,0,3.475-3.475V16.975q0-.172-.006-.343A9.475,9.475,0,0,0,191.692,7.5h-1.845a9.473,9.473,0,0,0-8.43,5.148" transform="translate(-83.034 0)" fill="none" stroke="#000" stroke-linecap="round" stroke-linejoin="round" stroke-miterlimit="10" stroke-width="1.5"/>
        <path id="Path_1040669" data-name="Path 1040669" d="M209.814,105.335h0a7.362,7.362,0,0,1-7.362-7.362V91.7a.552.552,0,0,1,.812-.486c2.94,1.572,5.772.608,8.158-.847a.546.546,0,0,1,.641.049,4.216,4.216,0,0,0,4.381.585.552.552,0,0,1,.732.521v6.45A7.362,7.362,0,0,1,209.814,105.335Z" transform="translate(-102.079 -71.405)" fill="#ffe0cf"/>
        <g id="Group_1179916" data-name="Group 1179916" transform="translate(106.624 19.566)">
          <path id="Path_1040670" data-name="Path 1040670" d="M255.662,95.3a6.225,6.225,0,0,1-1.525.328.551.551,0,0,1,.035.193v6.45a7.363,7.363,0,0,1-6.251,7.278,7.414,7.414,0,0,0,1.111.083h0a7.362,7.362,0,0,0,7.362-7.362V95.82A.552.552,0,0,0,255.662,95.3Z" transform="translate(-247.921 -95.269)" fill="#ffcfc0"/>
        </g>
        <path id="Path_1040671" data-name="Path 1040671" d="M209.814,105.335h0a7.362,7.362,0,0,1-7.362-7.362V91.7a.552.552,0,0,1,.812-.486c2.94,1.572,5.772.608,8.158-.847a.546.546,0,0,1,.641.049,4.216,4.216,0,0,0,4.381.585.552.552,0,0,1,.732.521v6.45A7.362,7.362,0,0,1,209.814,105.335Z" transform="translate(-102.079 -71.405)" fill="none" stroke="#000" stroke-linecap="round" stroke-linejoin="round" stroke-miterlimit="10" stroke-width="1.5"/>
        <path id="Path_1040672" data-name="Path 1040672" d="M332.666,201.74l-10.208-3.71,2.649-7.288a.949.949,0,0,1,1.216-.568l9.315,3.386a2,2,0,0,1,1.195,2.559l-1.609,4.426A2,2,0,0,1,332.666,201.74Z" transform="translate(-205.587 -157.512)" fill="#ff546a"/>
        <line id="Line_1220" data-name="Line 1220" x1="4.518" y2="12.432" transform="translate(112.353 40.519)" fill="none" stroke="#000" stroke-linecap="round" stroke-linejoin="round" stroke-miterlimit="10" stroke-width="1.5"/>
        <path id="Path_1040673" data-name="Path 1040673" d="M88.391,201.74l10.208-3.71-2.649-7.288a.949.949,0,0,0-1.216-.568l-9.315,3.386a2,2,0,0,0-1.195,2.559l1.609,4.426A2,2,0,0,0,88.391,201.74Z" transform="translate(0 -157.512)" fill="#ff546a"/>
        <path id="Path_1040674" data-name="Path 1040674" d="M88.391,201.74l10.208-3.71-2.649-7.288a.949.949,0,0,0-1.216-.568l-9.315,3.386a2,2,0,0,0-1.195,2.559l1.609,4.426A2,2,0,0,0,88.391,201.74Z" transform="translate(0 -157.512)" fill="none" stroke="#000" stroke-linecap="round" stroke-linejoin="round" stroke-miterlimit="10" stroke-width="1.5"/>
        <line id="Line_1221" data-name="Line 1221" x2="4.518" y2="12.432" transform="translate(98.598 40.519)" fill="none" stroke="#000" stroke-linecap="round" stroke-linejoin="round" stroke-miterlimit="10" stroke-width="1.5"/>
        <path id="Path_1040675" data-name="Path 1040675" d="M166.687,332.591H134.6a.75.75,0,0,1-.75-.75v-2.979a.75.75,0,0,1,.75-.75h32.085a.75.75,0,0,1,.75.75v2.979A.75.75,0,0,1,166.687,332.591Z" transform="translate(-42.91 -276.534)" fill="#6c5e69"/>
        <path id="Path_1040676" data-name="Path 1040676" d="M357.986,328.11h-2.344a.75.75,0,0,1,.75.75v2.979a.75.75,0,0,1-.75.75h2.344a.75.75,0,0,0,.75-.75V328.86A.75.75,0,0,0,357.986,328.11Z" transform="translate(-234.208 -276.533)" fill="#574d56"/>
        <path id="Path_1040677" data-name="Path 1040677" d="M166.687,332.591H134.6a.75.75,0,0,1-.75-.75v-2.979a.75.75,0,0,1,.75-.75h32.085a.75.75,0,0,1,.75.75v2.979A.75.75,0,0,1,166.687,332.591Z" transform="translate(-42.91 -276.534)" fill="none" stroke="#000" stroke-linecap="round" stroke-linejoin="round" stroke-miterlimit="10" stroke-width="1.5"/>
        <path id="Path_1040678" data-name="Path 1040678" d="M154.539,360.7H127.283l-4.716,19.77h36.689Z" transform="translate(-33.176 -304.641)" fill="#6c5e69"/>
        <path id="Path_1040679" data-name="Path 1040679" d="M180.925,363.243l-.607-2.545H153.061l-.607,2.545Z" transform="translate(-58.955 -304.641)" fill="#574d56"/>
        <path id="Path_1040680" data-name="Path 1040680" d="M231.152,421.932h-9.424V410.654a1.883,1.883,0,0,1,1.883-1.883h5.658a1.883,1.883,0,0,1,1.883,1.883v11.278Z" transform="translate(-118.705 -346.105)" fill="#faf7f8"/>
        <path id="Path_1040681" data-name="Path 1040681" d="M260.148,408.771h-2.619a1.883,1.883,0,0,1,1.883,1.883v11.278h2.619V410.654A1.883,1.883,0,0,0,260.148,408.771Z" transform="translate(-149.584 -346.105)" fill="#f0eef0"/>
        <path id="Path_1040682" data-name="Path 1040682" d="M221.727,421.932V410.654a1.883,1.883,0,0,1,1.883-1.883h5.658a1.883,1.883,0,0,1,1.883,1.883v11.278" transform="translate(-118.704 -346.105)" fill="none" stroke="#000" stroke-linecap="round" stroke-linejoin="round" stroke-miterlimit="10" stroke-width="1.5"/>
        <path id="Path_1040683" data-name="Path 1040683" d="M336,198.417l.835-2.3a2,2,0,0,0-1.195-2.559l-9.315-3.386a.949.949,0,0,0-1.216.568l-2.649,7.288,10.208,3.71a1.987,1.987,0,0,0,1.206.049" transform="translate(-205.587 -157.512)" fill="none" stroke="#000" stroke-linecap="round" stroke-linejoin="round" stroke-miterlimit="10" stroke-width="1.5"/>
        <line id="Line_1222" data-name="Line 1222" x1="2.262" y2="9.48" transform="translate(89.391 66.347)" fill="none" stroke="#000" stroke-linecap="round" stroke-linejoin="round" stroke-miterlimit="10" stroke-width="1.5"/>
        <path id="Path_1040684" data-name="Path 1040684" d="M179.411,380.468l-4.716-19.77H147.438l-1.5,6.3" transform="translate(-53.332 -304.641)" fill="none" stroke="#000" stroke-linecap="round" stroke-linejoin="round" stroke-miterlimit="10" stroke-width="1.5"/>
      </g>
    </g>
  </g>
</svg>
