<svg xmlns="http://www.w3.org/2000/svg" xmlns:xlink="http://www.w3.org/1999/xlink" width="113" height="113" viewBox="0 0 113 113">
  <defs>
    <filter id="Path_982547" x="0" y="0" width="113" height="113" filterUnits="userSpaceOnUse">
      <feOffset dy="3" input="SourceAlpha"/>
      <feGaussianBlur stdDeviation="3" result="blur"/>
      <feFlood flood-opacity="0.161"/>
      <feComposite operator="in" in2="blur"/>
      <feComposite in="SourceGraphic"/>
    </filter>
  </defs>
  <g id="Group_1180065" data-name="Group 1180065" transform="translate(-575 -4669)">
    <g id="Group_1179923" data-name="Group 1179923" transform="translate(0 23)">
      <g id="Group_1172830" data-name="Group 1172830" transform="translate(-10.5 3399.565)">
        <g id="Group_1172152" data-name="Group 1172152" transform="translate(0 -51.709)">
          <g id="Group_1171047" data-name="Group 1171047" transform="translate(594.5 1304.145)">
            <g id="Group_1148525" data-name="Group 1148525" transform="translate(0)">
              <g transform="matrix(1, 0, 0, 1, -9, -6)" filter="url(#Path_982547)">
                <g id="Path_982547-2" data-name="Path 982547" transform="translate(9 6)" fill="#f2f7f5">
                  <path d="M 47.5 93.5 C 41.28937149047852 93.5 35.26533508300781 92.28397369384766 29.59518623352051 89.88570404052734 C 24.11771965026855 87.56893157958984 19.19813346862793 84.25196075439453 14.97309303283691 80.02691650390625 C 10.74804019927979 75.80186462402344 7.431066513061523 70.88229370117188 5.114293098449707 65.40481567382812 C 2.716026782989502 59.73468017578125 1.5 53.71062850952148 1.5 47.5 C 1.5 41.28937149047852 2.716026782989502 35.26533508300781 5.114293098449707 29.59518623352051 C 7.431066513061523 24.11771965026855 10.74804019927979 19.19813346862793 14.97309303283691 14.97309303283691 C 19.19813346862793 10.74804019927979 24.11771965026855 7.431066513061523 29.59518623352051 5.114293098449707 C 35.26533508300781 2.716026782989502 41.28937149047852 1.5 47.5 1.5 C 53.71062850952148 1.5 59.73468017578125 2.716026782989502 65.40481567382812 5.114293098449707 C 70.88229370117188 7.431066513061523 75.80186462402344 10.74804019927979 80.02691650390625 14.97309303283691 C 84.25196075439453 19.19813346862793 87.56893157958984 24.11771965026855 89.88570404052734 29.59518623352051 C 92.28397369384766 35.26533508300781 93.5 41.28937149047852 93.5 47.5 C 93.5 53.71062850952148 92.28397369384766 59.73468017578125 89.88570404052734 65.40481567382812 C 87.56893157958984 70.88229370117188 84.25196075439453 75.80186462402344 80.02691650390625 80.02691650390625 C 75.80186462402344 84.25196075439453 70.88229370117188 87.56893157958984 65.40481567382812 89.88570404052734 C 59.73468017578125 92.28397369384766 53.71062850952148 93.5 47.5 93.5 Z" stroke="none"/>
                  <path d="M 47.5 3 C 41.49121475219727 3 35.66376876831055 4.176155090332031 30.17950439453125 6.495796203613281 C 24.88084411621094 8.736953735351562 20.12152099609375 11.94598388671875 16.03375244140625 16.03375244140625 C 11.94598388671875 20.12152099609375 8.736953735351562 24.88084411621094 6.495796203613281 30.17950439453125 C 4.176155090332031 35.66376876831055 3 41.49121475219727 3 47.5 C 3 53.50878524780273 4.176155090332031 59.33623123168945 6.495796203613281 64.82049560546875 C 8.736953735351562 70.11915588378906 11.94598388671875 74.87847900390625 16.03375244140625 78.96624755859375 C 20.12152099609375 83.05401611328125 24.88084411621094 86.26304626464844 30.17950439453125 88.50419616699219 C 35.66376876831055 90.82384490966797 41.49121475219727 92 47.5 92 C 53.50878524780273 92 59.33623123168945 90.82384490966797 64.82049560546875 88.50419616699219 C 70.11915588378906 86.26304626464844 74.87847900390625 83.05401611328125 78.96624755859375 78.96624755859375 C 83.05401611328125 74.87847900390625 86.26304626464844 70.11915588378906 88.50419616699219 64.82049560546875 C 90.82384490966797 59.33623123168945 92 53.50878524780273 92 47.5 C 92 41.49121475219727 90.82384490966797 35.66376876831055 88.50419616699219 30.17950439453125 C 86.26304626464844 24.88084411621094 83.05401611328125 20.12152099609375 78.96624755859375 16.03375244140625 C 74.87847900390625 11.94598388671875 70.11915588378906 8.736953735351562 64.82049560546875 6.495796203613281 C 59.33623123168945 4.176155090332031 53.50878524780273 3 47.5 3 M 47.5 0 C 73.7335205078125 0 95 21.2664794921875 95 47.5 C 95 73.7335205078125 73.7335205078125 95 47.5 95 C 21.2664794921875 95 0 73.7335205078125 0 47.5 C 0 21.2664794921875 21.2664794921875 0 47.5 0 Z" stroke="none" fill="#4a665c"/>
                </g>
              </g>
            </g>
          </g>
        </g>
      </g>
      <g id="statistics_9655388" transform="translate(592.662 4717.322)">
        <g id="Group_1179922" data-name="Group 1179922" transform="translate(9.284 -55.591)">
          <g id="Group_1179919" data-name="Group 1179919" transform="translate(0 0)">
            <circle id="Ellipse_12180" data-name="Ellipse 12180" cx="20.5" cy="20.5" r="20.5" transform="translate(0 28.987) rotate(-45)" fill="#a4d4ff"/>
            <g id="Group_1179918" data-name="Group 1179918" transform="translate(12.628 8.486)">
              <path id="Path_1040685" data-name="Path 1040685" d="M133.363,38.08c-2.341-2.064-1.358-3.069.486-3.58,2.121-.587,5.382-.52,6.028-.657,1.513-.322,1.949-1.386.792-2.389-1.359-1.178-3.737-2.473-4.291-3.527-.766-1.458-.209-1.893.778-2.2,2.092-.647,6.121-.713,3.63-8.683a20.529,20.529,0,0,0-22.841,7.107,11.924,11.924,0,0,1,2.422,4.667c.318,6.5,3.388,6.443,4.29,6.795,2.281.889,3.993,6.185,5.418,7.836.825.956,2.563,2.962,5.309,1.506C138.709,43.193,134.347,38.948,133.363,38.08Z" transform="translate(-117.943 -16.001)" fill="#89c053" fill-rule="evenodd"/>
              <path id="Path_1040686" data-name="Path 1040686" d="M135.67,302.288c.221-5.168-6.051-1.586-6.94-2.049a20.519,20.519,0,0,0,8.5,5.539c.03-.273-.026-.233-.007-.551C137.389,302.517,135.622,303.408,135.67,302.288Z" transform="translate(-127.451 -265.858)" fill="#89c053" fill-rule="evenodd"/>
              <path id="Path_1040687" data-name="Path 1040687" d="M354.125,161.312c-1.895,1.853.823,5.848-3.4,8.45-2.433,1.5,1.357,4.5,0,8a1.913,1.913,0,0,0,.519,2.2,20.536,20.536,0,0,0,7.739-19.64C356.318,160.216,354.842,160.611,354.125,161.312Z" transform="translate(-322.396 -143.199)" fill="#89c053" fill-rule="evenodd"/>
            </g>
          </g>
          <g id="Group_1179920" data-name="Group 1179920" transform="translate(0.544 31.189)">
            <path id="Path_1040688" data-name="Path 1040688" d="M16.592,375.819h6.493a.594.594,0,0,1,.593.593v11.875a.594.594,0,0,1-.593.593H16.592a.594.594,0,0,1-.593-.593V376.412A.594.594,0,0,1,16.592,375.819Z" transform="translate(-15.999 -355.87)" fill="#f76c82" fill-rule="evenodd"/>
            <path id="Path_1040689" data-name="Path 1040689" d="M389.2,282.243H395.7a.594.594,0,0,1,.593.593V305.8a.594.594,0,0,1-.593.593H389.2a.594.594,0,0,1-.593-.593V282.836A.594.594,0,0,1,389.2,282.243Z" transform="translate(-344.442 -273.386)" fill="#66d4f1" fill-rule="evenodd"/>
            <path id="Path_1040690" data-name="Path 1040690" d="M140.8,207.526h6.493a.594.594,0,0,1,.593.593v31.824a.594.594,0,0,1-.593.593H140.8a.594.594,0,0,1-.593-.593V208.119A.594.594,0,0,1,140.8,207.526Z" transform="translate(-125.48 -207.526)" fill="#fdcd56" fill-rule="evenodd"/>
            <path id="Path_1040691" data-name="Path 1040691" d="M265,282.243h6.493a.594.594,0,0,1,.593.593V305.8a.594.594,0,0,1-.593.593H265a.594.594,0,0,1-.593-.593V282.836A.594.594,0,0,1,265,282.243Z" transform="translate(-234.962 -273.386)" fill="#c6ea94" fill-rule="evenodd"/>
          </g>
          <g id="Group_1179921" data-name="Group 1179921" transform="translate(39.065 47.018)">
            <circle id="Ellipse_12181" data-name="Ellipse 12181" cx="8.89" cy="8.89" r="8.89" transform="translate(0.596 0.585)" fill="#fdcd56"/>
            <circle id="Ellipse_12182" data-name="Ellipse 12182" cx="6.701" cy="6.701" r="6.701" transform="translate(0 9.476) rotate(-45)" fill="#f5b945"/>
          </g>
        </g>
        <path id="Path_1040692" data-name="Path 1040692" d="M60.467,59.479a2.466,2.466,0,0,1-1.785,2.309l0,.212a.831.831,0,0,1-.81.849h-.02a.83.83,0,0,1-.829-.811l0-.236a3.132,3.132,0,0,1-1.264-.8.83.83,0,0,1,1.14-1.208c.406.383.572.466.938.466a.8.8,0,1,0,0-1.558A2.544,2.544,0,0,1,55.2,56.26a2.466,2.466,0,0,1,1.788-2.309l-.007-.271a.831.831,0,0,1,.809-.85h.021a.83.83,0,0,1,.829.809l.007.326a2.769,2.769,0,0,1,1.476.974.829.829,0,1,1-1.386.91,1.778,1.778,0,0,0-.905-.369.8.8,0,1,0,0,1.557A2.544,2.544,0,0,1,60.467,59.479Zm-2.632,4.233a5.872,5.872,0,1,0-5.871-5.872A5.878,5.878,0,0,0,57.835,63.712Zm0-13.4a7.531,7.531,0,1,0,7.53,7.531A7.539,7.539,0,0,0,57.835,50.308Zm0,15.592a8.06,8.06,0,1,0-8.06-8.06A8.069,8.069,0,0,0,57.835,65.9Zm-3.01-23.678h6.02V48.6a9.672,9.672,0,0,0-6.02,0Zm-8.7,22.493H40.1V42.222h6.019Zm-14.723,0H25.38V33.365H31.4Zm31.1-15.4V41.392a.829.829,0,0,0-.83-.83h-4.68A21.258,21.258,0,0,0,58.27,37.78a.83.83,0,1,0-1.555-.58,19.569,19.569,0,0,1-1.636,3.363H54a.83.83,0,0,0-.829.83v1.791a19.834,19.834,0,0,1-2.277,2.238c-.071-.215,0-.4.127-.727a7.168,7.168,0,0,0-.342-5.178,4.708,4.708,0,0,1-.422-1.881.83.83,0,0,0-1.634-.292,5.569,5.569,0,0,0,.488,2.716,5.669,5.669,0,0,1,.364,4.036,2.425,2.425,0,0,0,.084,2.35,19.746,19.746,0,0,1-1.771,1.109V41.392a.83.83,0,0,0-.829-.83H39.274a.829.829,0,0,0-.83.83V50l-.167,0a19.713,19.713,0,0,1-5.218-.7V37.36a5.511,5.511,0,0,0,.355.465c.614.712,1.994,2.311,4.058,2.311a4.813,4.813,0,0,0,2.267-.614,2.838,2.838,0,0,0,1.628-3.108.83.83,0,1,0-1.638.263,1.2,1.2,0,0,1-.767,1.379c-2,1.06-3.264-.123-4.291-1.315a16.317,16.317,0,0,1-1.549-2.653l-.062-.12V32.535a.83.83,0,0,0-.83-.829h-.4a9.277,9.277,0,0,0-1.949-2.461.83.83,0,0,0-1.049,1.286,5.673,5.673,0,0,1,1.028,1.175H24.55a.83.83,0,0,0-.829.829V43.56a19.545,19.545,0,0,1-4.513-8.383.83.83,0,1,0-1.609.408A21.241,21.241,0,0,0,23.72,45.924v19.62a.83.83,0,0,0,.829.83h7.679a.829.829,0,0,0,.83-.83V51.019a21.359,21.359,0,0,0,5.218.645l.167,0V65.544a.829.829,0,0,0,.83.83h7.679a.83.83,0,0,0,.829-.83V49.432A21.555,21.555,0,0,0,53.166,45.6v3.718a9.72,9.72,0,1,0,9.338,0ZM17.189,27.112a21.332,21.332,0,0,1,42.418,3.222v.049a.829.829,0,0,1-.83.825h0a.828.828,0,0,1-.825-.834v-.044a19.564,19.564,0,0,0-.167-2.559c-1.821-.018-3.018.239-3.56.77a2.627,2.627,0,0,0-.535,1.867.83.83,0,0,1-.829.8h-.031a.83.83,0,0,1-.8-.86,4.133,4.133,0,0,1,1.034-2.995c.858-.839,2.246-1.234,4.429-1.244a19.745,19.745,0,0,0-11.5-13.871c.573,2.449.5,4.289-.229,5.594a5.346,5.346,0,0,1-3.742,2.344c-.234.06-.456.117-.648.176-.461.143-.546.241-.553.253a1.572,1.572,0,0,0,.264.766,9.553,9.553,0,0,0,2.277,1.915c.636.449,1.3.913,1.823,1.37a2.145,2.145,0,0,1,.889,2.207,2.455,2.455,0,0,1-2.052,1.621,11.006,11.006,0,0,1-1.425.114c-.716.035-1.605.078-2.5.174-.031,0-.06,0-.09,0a.83.83,0,0,1-.086-1.654c.939-.1,1.855-.145,2.591-.181.479-.023,1.02-.05,1.161-.08.547-.117.768-.328.791-.412s-.067-.277-.37-.539c-.465-.4-1.088-.843-1.693-1.268a9.23,9.23,0,0,1-2.789-2.5,2.627,2.627,0,0,1-.325-2.181,2.308,2.308,0,0,1,1.592-1.2c.232-.071.471-.133.726-.2a3.857,3.857,0,0,0,2.7-1.544c.6-1.084.528-2.93-.222-5.486A19.62,19.62,0,0,0,23.01,17.972a12.707,12.707,0,0,1,2.152,4.638c.009.193.021.386.037.573a.83.83,0,0,1-.761.894l-.068,0a.83.83,0,0,1-.826-.763c-.017-.2-.03-.415-.039-.625a12.77,12.77,0,0,0-1.535-3.324,19.369,19.369,0,0,0-3.141,7.993.83.83,0,1,1-1.641-.249ZM9.125,37a.829.829,0,0,0,1.144.263L28.2,26.028l14.488,8.619a.829.829,0,0,0,.424.117H64.59L62.9,36.307a.83.83,0,0,0,1.122,1.224l3.261-2.985a.83.83,0,0,0,.052-1.172l-2.986-3.261a.83.83,0,0,0-1.224,1.12L64.841,33.1H43.34L28.612,24.343a.829.829,0,0,0-.864.01l-18.36,11.5A.829.829,0,0,0,9.125,37Zm7.552,27.718h-6.02v-11.4h6.02Zm.83-13.06a.83.83,0,0,1,.829.829v13.06a.829.829,0,0,1-.829.83H9.828a.83.83,0,0,1-.83-.83V52.484a.83.83,0,0,1,.83-.829Z" transform="translate(0 -56.937)" fill-rule="evenodd"/>
      </g>
    </g>
  </g>
</svg>
